<mxfile host="app.diagrams.net" modified="2021-09-21T15:40:16.949Z" agent="5.0 (Windows NT 10.0; Win64; x64) AppleWebKit/537.36 (KHTML, like Gecko) Chrome/93.0.4577.82 Safari/537.36" etag="oEbg5SoXG4GXYvi3rqoM" version="15.2.9" type="github">
  <diagram id="LglI_G4hrFKkp3s09keA" name="Page-1">
    <mxGraphModel dx="1038" dy="579" grid="1" gridSize="10" guides="1" tooltips="1" connect="1" arrows="1" fold="1" page="1" pageScale="1" pageWidth="1100" pageHeight="1700" math="0" shadow="0">
      <root>
        <mxCell id="0" />
        <mxCell id="1" parent="0" />
        <mxCell id="-8dKipwocMkaaqdaRbaH-1" style="edgeStyle=orthogonalEdgeStyle;rounded=0;orthogonalLoop=1;jettySize=auto;html=1;startFill=0;endArrow=none;endFill=0;strokeWidth=1;shape=link;" parent="1" source="-8dKipwocMkaaqdaRbaH-2" edge="1">
          <mxGeometry relative="1" as="geometry">
            <mxPoint x="1645" y="250" as="targetPoint" />
          </mxGeometry>
        </mxCell>
        <mxCell id="-8dKipwocMkaaqdaRbaH-2" value="employee" style="whiteSpace=wrap;html=1;align=center;" parent="1" vertex="1">
          <mxGeometry x="1595" y="170" width="100" height="40" as="geometry" />
        </mxCell>
        <mxCell id="-8dKipwocMkaaqdaRbaH-3" style="rounded=0;orthogonalLoop=1;jettySize=auto;html=1;strokeColor=none;" parent="1" source="-8dKipwocMkaaqdaRbaH-5" edge="1">
          <mxGeometry relative="1" as="geometry">
            <mxPoint x="1645" y="170" as="targetPoint" />
          </mxGeometry>
        </mxCell>
        <mxCell id="-8dKipwocMkaaqdaRbaH-4" style="edgeStyle=orthogonalEdgeStyle;rounded=0;orthogonalLoop=1;jettySize=auto;html=1;exitX=1;exitY=1;exitDx=0;exitDy=0;entryX=0.5;entryY=0;entryDx=0;entryDy=0;startFill=0;endArrow=none;endFill=0;strokeWidth=1;" parent="1" source="-8dKipwocMkaaqdaRbaH-5" target="-8dKipwocMkaaqdaRbaH-2" edge="1">
          <mxGeometry relative="1" as="geometry">
            <Array as="points">
              <mxPoint x="1570" y="110" />
              <mxPoint x="1645" y="110" />
            </Array>
          </mxGeometry>
        </mxCell>
        <mxCell id="-8dKipwocMkaaqdaRbaH-5" value="&lt;u&gt;Emp_no&lt;/u&gt;" style="ellipse;whiteSpace=wrap;html=1;align=center;" parent="1" vertex="1">
          <mxGeometry x="1485" y="60" width="100" height="40" as="geometry" />
        </mxCell>
        <mxCell id="-8dKipwocMkaaqdaRbaH-6" style="edgeStyle=orthogonalEdgeStyle;rounded=0;orthogonalLoop=1;jettySize=auto;html=1;entryX=0.5;entryY=0;entryDx=0;entryDy=0;startFill=0;endArrow=none;endFill=0;strokeWidth=1;" parent="1" source="-8dKipwocMkaaqdaRbaH-7" target="-8dKipwocMkaaqdaRbaH-2" edge="1">
          <mxGeometry relative="1" as="geometry" />
        </mxCell>
        <mxCell id="-8dKipwocMkaaqdaRbaH-7" value="address" style="ellipse;whiteSpace=wrap;html=1;align=center;" parent="1" vertex="1">
          <mxGeometry x="1675" y="70" width="100" height="40" as="geometry" />
        </mxCell>
        <mxCell id="-8dKipwocMkaaqdaRbaH-8" style="edgeStyle=orthogonalEdgeStyle;rounded=0;orthogonalLoop=1;jettySize=auto;html=1;entryX=0.5;entryY=0;entryDx=0;entryDy=0;startFill=0;endArrow=none;endFill=0;strokeWidth=1;" parent="1" source="-8dKipwocMkaaqdaRbaH-9" target="-8dKipwocMkaaqdaRbaH-2" edge="1">
          <mxGeometry relative="1" as="geometry" />
        </mxCell>
        <mxCell id="-8dKipwocMkaaqdaRbaH-9" value="&lt;span style=&quot;border-bottom: 1px dotted&quot;&gt;name&lt;/span&gt;" style="ellipse;whiteSpace=wrap;html=1;align=center;" parent="1" vertex="1">
          <mxGeometry x="1585" y="40" width="100" height="40" as="geometry" />
        </mxCell>
        <mxCell id="-8dKipwocMkaaqdaRbaH-10" style="edgeStyle=orthogonalEdgeStyle;rounded=0;orthogonalLoop=1;jettySize=auto;html=1;entryX=0.75;entryY=1;entryDx=0;entryDy=0;startFill=0;endArrow=none;endFill=0;strokeWidth=1;" parent="1" source="-8dKipwocMkaaqdaRbaH-11" target="-8dKipwocMkaaqdaRbaH-92" edge="1">
          <mxGeometry relative="1" as="geometry" />
        </mxCell>
        <mxCell id="-8dKipwocMkaaqdaRbaH-11" value="&lt;u&gt;ward_identifier&lt;/u&gt;" style="ellipse;whiteSpace=wrap;html=1;align=center;" parent="1" vertex="1">
          <mxGeometry x="2745" y="350" width="100" height="40" as="geometry" />
        </mxCell>
        <mxCell id="-8dKipwocMkaaqdaRbaH-12" value="dea_number" style="ellipse;whiteSpace=wrap;html=1;align=center;" parent="1" vertex="1">
          <mxGeometry x="1065" y="490" width="100" height="40" as="geometry" />
        </mxCell>
        <mxCell id="-8dKipwocMkaaqdaRbaH-13" style="edgeStyle=orthogonalEdgeStyle;rounded=0;orthogonalLoop=1;jettySize=auto;html=1;entryX=0;entryY=0.5;entryDx=0;entryDy=0;startFill=0;endArrow=none;endFill=0;strokeWidth=1;" parent="1" source="-8dKipwocMkaaqdaRbaH-14" target="-8dKipwocMkaaqdaRbaH-28" edge="1">
          <mxGeometry relative="1" as="geometry" />
        </mxCell>
        <mxCell id="-8dKipwocMkaaqdaRbaH-14" value="hourly_rate" style="ellipse;whiteSpace=wrap;html=1;align=center;" parent="1" vertex="1">
          <mxGeometry x="1515" y="410" width="100" height="40" as="geometry" />
        </mxCell>
        <mxCell id="-8dKipwocMkaaqdaRbaH-15" style="edgeStyle=orthogonalEdgeStyle;rounded=0;orthogonalLoop=1;jettySize=auto;html=1;entryX=1;entryY=0.5;entryDx=0;entryDy=0;startFill=0;endArrow=none;endFill=0;strokeWidth=1;" parent="1" source="-8dKipwocMkaaqdaRbaH-16" target="-8dKipwocMkaaqdaRbaH-27" edge="1">
          <mxGeometry relative="1" as="geometry" />
        </mxCell>
        <mxCell id="-8dKipwocMkaaqdaRbaH-16" value="contract_start_date" style="ellipse;whiteSpace=wrap;html=1;align=center;" parent="1" vertex="1">
          <mxGeometry x="1935" y="470" width="110" height="40" as="geometry" />
        </mxCell>
        <mxCell id="-8dKipwocMkaaqdaRbaH-17" style="edgeStyle=orthogonalEdgeStyle;rounded=0;orthogonalLoop=1;jettySize=auto;html=1;startFill=0;endArrow=none;endFill=0;strokeWidth=1;exitX=0.5;exitY=1;exitDx=0;exitDy=0;entryX=0.664;entryY=-0.024;entryDx=0;entryDy=0;entryPerimeter=0;" parent="1" source="-8dKipwocMkaaqdaRbaH-18" target="-8dKipwocMkaaqdaRbaH-27" edge="1">
          <mxGeometry relative="1" as="geometry">
            <mxPoint x="1925" y="410" as="sourcePoint" />
            <mxPoint x="1860" y="460" as="targetPoint" />
            <Array as="points">
              <mxPoint x="1905" y="400" />
              <mxPoint x="1905" y="430" />
              <mxPoint x="1861" y="430" />
              <mxPoint x="1861" y="460" />
            </Array>
          </mxGeometry>
        </mxCell>
        <mxCell id="-8dKipwocMkaaqdaRbaH-18" value="contract_end_date" style="ellipse;whiteSpace=wrap;html=1;align=center;" parent="1" vertex="1">
          <mxGeometry x="1855" y="360" width="110" height="40" as="geometry" />
        </mxCell>
        <mxCell id="-8dKipwocMkaaqdaRbaH-19" style="edgeStyle=orthogonalEdgeStyle;rounded=0;orthogonalLoop=1;jettySize=auto;html=1;exitX=0.5;exitY=0;exitDx=0;exitDy=0;entryX=0.5;entryY=1;entryDx=0;entryDy=0;startFill=0;endArrow=none;endFill=0;strokeWidth=1;" parent="1" source="-8dKipwocMkaaqdaRbaH-20" target="-8dKipwocMkaaqdaRbaH-70" edge="1">
          <mxGeometry relative="1" as="geometry" />
        </mxCell>
        <mxCell id="-8dKipwocMkaaqdaRbaH-20" value="&#xa;&#xa;&lt;span style=&quot;color: rgb(0, 0, 0); font-family: helvetica; font-size: 12px; font-style: normal; font-weight: 400; letter-spacing: normal; text-align: center; text-indent: 0px; text-transform: none; word-spacing: 0px; background-color: rgb(248, 249, 250); display: inline; float: none;&quot;&gt;contact_no&lt;/span&gt;&#xa;&#xa;" style="ellipse;shape=doubleEllipse;margin=3;whiteSpace=wrap;html=1;align=center;" parent="1" vertex="1">
          <mxGeometry x="2545" y="1150" width="100" height="40" as="geometry" />
        </mxCell>
        <mxCell id="-8dKipwocMkaaqdaRbaH-21" value="&lt;span&gt;area_of_specialty&lt;/span&gt;" style="ellipse;shape=doubleEllipse;margin=3;whiteSpace=wrap;html=1;align=center;" parent="1" vertex="1">
          <mxGeometry x="1055" y="430" width="110" height="40" as="geometry" />
        </mxCell>
        <mxCell id="-8dKipwocMkaaqdaRbaH-22" style="edgeStyle=orthogonalEdgeStyle;rounded=0;orthogonalLoop=1;jettySize=auto;html=1;entryX=0.5;entryY=0;entryDx=0;entryDy=0;startFill=0;endArrow=none;endFill=0;strokeWidth=1;" parent="1" source="-8dKipwocMkaaqdaRbaH-23" target="-8dKipwocMkaaqdaRbaH-2" edge="1">
          <mxGeometry relative="1" as="geometry" />
        </mxCell>
        <mxCell id="-8dKipwocMkaaqdaRbaH-23" value="contact_no" style="ellipse;shape=doubleEllipse;margin=3;whiteSpace=wrap;html=1;align=center;" parent="1" vertex="1">
          <mxGeometry x="1475" y="110" width="100" height="40" as="geometry" />
        </mxCell>
        <mxCell id="-8dKipwocMkaaqdaRbaH-24" style="edgeStyle=orthogonalEdgeStyle;rounded=0;orthogonalLoop=1;jettySize=auto;html=1;exitX=1;exitY=0.5;exitDx=0;exitDy=0;entryX=0;entryY=0.5;entryDx=0;entryDy=0;startFill=0;endArrow=none;endFill=0;strokeWidth=1;" parent="1" source="-8dKipwocMkaaqdaRbaH-25" target="-8dKipwocMkaaqdaRbaH-45" edge="1">
          <mxGeometry relative="1" as="geometry" />
        </mxCell>
        <mxCell id="-8dKipwocMkaaqdaRbaH-25" value="med_staff" style="whiteSpace=wrap;html=1;align=center;" parent="1" vertex="1">
          <mxGeometry x="1290" y="330" width="100" height="40" as="geometry" />
        </mxCell>
        <mxCell id="-8dKipwocMkaaqdaRbaH-26" value="non-med_staff" style="whiteSpace=wrap;html=1;align=center;" parent="1" vertex="1">
          <mxGeometry x="1675" y="330" width="100" height="40" as="geometry" />
        </mxCell>
        <mxCell id="-8dKipwocMkaaqdaRbaH-27" value="cleaners" style="whiteSpace=wrap;html=1;align=center;" parent="1" vertex="1">
          <mxGeometry x="1795" y="450" width="100" height="40" as="geometry" />
        </mxCell>
        <mxCell id="-8dKipwocMkaaqdaRbaH-28" value="attendents" style="whiteSpace=wrap;html=1;align=center;" parent="1" vertex="1">
          <mxGeometry x="1585" y="460" width="100" height="40" as="geometry" />
        </mxCell>
        <mxCell id="-8dKipwocMkaaqdaRbaH-29" style="edgeStyle=orthogonalEdgeStyle;rounded=0;orthogonalLoop=1;jettySize=auto;html=1;startFill=0;endArrow=none;endFill=0;strokeWidth=1;entryX=0;entryY=0.5;entryDx=0;entryDy=0;shape=link;" parent="1" source="-8dKipwocMkaaqdaRbaH-33" target="-8dKipwocMkaaqdaRbaH-201" edge="1">
          <mxGeometry relative="1" as="geometry">
            <mxPoint x="1465" y="740" as="targetPoint" />
          </mxGeometry>
        </mxCell>
        <mxCell id="-8dKipwocMkaaqdaRbaH-30" value="M" style="edgeLabel;html=1;align=center;verticalAlign=middle;resizable=0;points=[];fontSize=16;" parent="-8dKipwocMkaaqdaRbaH-29" vertex="1" connectable="0">
          <mxGeometry x="-0.2617" y="-3" relative="1" as="geometry">
            <mxPoint as="offset" />
          </mxGeometry>
        </mxCell>
        <mxCell id="-8dKipwocMkaaqdaRbaH-33" value="nurses" style="whiteSpace=wrap;html=1;align=center;" parent="1" vertex="1">
          <mxGeometry x="1385" y="460" width="100" height="40" as="geometry" />
        </mxCell>
        <mxCell id="-8dKipwocMkaaqdaRbaH-34" style="edgeStyle=orthogonalEdgeStyle;rounded=0;orthogonalLoop=1;jettySize=auto;html=1;startFill=0;endArrow=none;endFill=0;strokeWidth=1;" parent="1" source="-8dKipwocMkaaqdaRbaH-42" target="-8dKipwocMkaaqdaRbaH-12" edge="1">
          <mxGeometry relative="1" as="geometry" />
        </mxCell>
        <mxCell id="-8dKipwocMkaaqdaRbaH-35" style="edgeStyle=orthogonalEdgeStyle;rounded=0;orthogonalLoop=1;jettySize=auto;html=1;startFill=0;endArrow=none;endFill=0;strokeWidth=1;entryX=1;entryY=0.5;entryDx=0;entryDy=0;" parent="1" source="-8dKipwocMkaaqdaRbaH-42" target="-8dKipwocMkaaqdaRbaH-21" edge="1">
          <mxGeometry relative="1" as="geometry">
            <mxPoint x="1165" y="440" as="targetPoint" />
          </mxGeometry>
        </mxCell>
        <mxCell id="-8dKipwocMkaaqdaRbaH-36" style="edgeStyle=orthogonalEdgeStyle;rounded=0;orthogonalLoop=1;jettySize=auto;html=1;entryX=1;entryY=0.5;entryDx=0;entryDy=0;startFill=0;endArrow=none;endFill=0;strokeWidth=1;" parent="1" source="-8dKipwocMkaaqdaRbaH-42" target="-8dKipwocMkaaqdaRbaH-124" edge="1">
          <mxGeometry relative="1" as="geometry">
            <Array as="points">
              <mxPoint x="1255" y="640" />
              <mxPoint x="1255" y="640" />
            </Array>
          </mxGeometry>
        </mxCell>
        <mxCell id="-8dKipwocMkaaqdaRbaH-37" value="N" style="edgeLabel;html=1;align=center;verticalAlign=middle;resizable=0;points=[];fontSize=16;" parent="-8dKipwocMkaaqdaRbaH-36" vertex="1" connectable="0">
          <mxGeometry x="0.3934" y="-4" relative="1" as="geometry">
            <mxPoint as="offset" />
          </mxGeometry>
        </mxCell>
        <mxCell id="-8dKipwocMkaaqdaRbaH-38" style="edgeStyle=orthogonalEdgeStyle;rounded=0;orthogonalLoop=1;jettySize=auto;html=1;startFill=0;endArrow=none;endFill=0;strokeWidth=1;entryX=0.5;entryY=0;entryDx=0;entryDy=0;exitX=0.75;exitY=1;exitDx=0;exitDy=0;" parent="1" source="-8dKipwocMkaaqdaRbaH-42" edge="1">
          <mxGeometry relative="1" as="geometry">
            <mxPoint x="1335" y="810" as="targetPoint" />
            <Array as="points">
              <mxPoint x="1270" y="570" />
              <mxPoint x="1335" y="570" />
            </Array>
          </mxGeometry>
        </mxCell>
        <mxCell id="-8dKipwocMkaaqdaRbaH-39" value="M" style="edgeLabel;html=1;align=center;verticalAlign=middle;resizable=0;points=[];fontSize=16;" parent="-8dKipwocMkaaqdaRbaH-38" vertex="1" connectable="0">
          <mxGeometry x="0.1982" relative="1" as="geometry">
            <mxPoint as="offset" />
          </mxGeometry>
        </mxCell>
        <mxCell id="-8dKipwocMkaaqdaRbaH-40" style="edgeStyle=orthogonalEdgeStyle;rounded=0;orthogonalLoop=1;jettySize=auto;html=1;exitX=1;exitY=0.5;exitDx=0;exitDy=0;startFill=0;endArrow=none;endFill=0;strokeWidth=1;entryX=0;entryY=0.5;entryDx=0;entryDy=0;" parent="1" source="-8dKipwocMkaaqdaRbaH-42" target="-8dKipwocMkaaqdaRbaH-205" edge="1">
          <mxGeometry relative="1" as="geometry">
            <mxPoint x="1985" y="690" as="targetPoint" />
            <Array as="points">
              <mxPoint x="1345" y="480" />
              <mxPoint x="1345" y="560" />
              <mxPoint x="1965" y="560" />
              <mxPoint x="1965" y="780" />
            </Array>
          </mxGeometry>
        </mxCell>
        <mxCell id="-8dKipwocMkaaqdaRbaH-41" value="M" style="edgeLabel;html=1;align=center;verticalAlign=middle;resizable=0;points=[];fontSize=16;" parent="-8dKipwocMkaaqdaRbaH-40" vertex="1" connectable="0">
          <mxGeometry x="0.4957" y="4" relative="1" as="geometry">
            <mxPoint as="offset" />
          </mxGeometry>
        </mxCell>
        <mxCell id="-8dKipwocMkaaqdaRbaH-42" value="doctors" style="whiteSpace=wrap;html=1;align=center;" parent="1" vertex="1">
          <mxGeometry x="1195" y="460" width="100" height="40" as="geometry" />
        </mxCell>
        <mxCell id="-8dKipwocMkaaqdaRbaH-43" style="edgeStyle=orthogonalEdgeStyle;rounded=0;orthogonalLoop=1;jettySize=auto;html=1;entryX=0;entryY=0.5;entryDx=0;entryDy=0;startFill=0;endArrow=none;endFill=0;strokeWidth=1;" parent="1" source="-8dKipwocMkaaqdaRbaH-44" target="-8dKipwocMkaaqdaRbaH-25" edge="1">
          <mxGeometry relative="1" as="geometry" />
        </mxCell>
        <mxCell id="-8dKipwocMkaaqdaRbaH-44" value="joined_date" style="ellipse;whiteSpace=wrap;html=1;align=center;" parent="1" vertex="1">
          <mxGeometry x="1145" y="340" width="100" height="40" as="geometry" />
        </mxCell>
        <mxCell id="-8dKipwocMkaaqdaRbaH-45" value="resigned_date" style="ellipse;whiteSpace=wrap;html=1;align=center;" parent="1" vertex="1">
          <mxGeometry x="1405" y="300" width="100" height="40" as="geometry" />
        </mxCell>
        <mxCell id="-8dKipwocMkaaqdaRbaH-46" style="edgeStyle=orthogonalEdgeStyle;rounded=0;orthogonalLoop=1;jettySize=auto;html=1;entryX=1;entryY=0.5;entryDx=0;entryDy=0;startFill=0;endArrow=none;endFill=0;strokeWidth=1;" parent="1" source="-8dKipwocMkaaqdaRbaH-47" target="-8dKipwocMkaaqdaRbaH-27" edge="1">
          <mxGeometry relative="1" as="geometry" />
        </mxCell>
        <mxCell id="-8dKipwocMkaaqdaRbaH-47" value="contracr_no" style="ellipse;whiteSpace=wrap;html=1;align=center;" parent="1" vertex="1">
          <mxGeometry x="1935" y="420" width="100" height="40" as="geometry" />
        </mxCell>
        <mxCell id="-8dKipwocMkaaqdaRbaH-48" style="edgeStyle=orthogonalEdgeStyle;rounded=0;orthogonalLoop=1;jettySize=auto;html=1;entryX=0.5;entryY=0;entryDx=0;entryDy=0;startFill=0;endArrow=none;endFill=0;strokeWidth=1;" parent="1" source="-8dKipwocMkaaqdaRbaH-49" target="-8dKipwocMkaaqdaRbaH-2" edge="1">
          <mxGeometry relative="1" as="geometry" />
        </mxCell>
        <mxCell id="-8dKipwocMkaaqdaRbaH-49" value="working_status" style="ellipse;whiteSpace=wrap;html=1;align=center;" parent="1" vertex="1">
          <mxGeometry x="1725" y="140" width="100" height="40" as="geometry" />
        </mxCell>
        <mxCell id="-8dKipwocMkaaqdaRbaH-50" style="edgeStyle=orthogonalEdgeStyle;rounded=0;orthogonalLoop=1;jettySize=auto;html=1;entryX=0.25;entryY=0;entryDx=0;entryDy=0;startFill=0;endArrow=none;endFill=0;strokeWidth=1;" parent="1" source="-8dKipwocMkaaqdaRbaH-51" target="-8dKipwocMkaaqdaRbaH-25" edge="1">
          <mxGeometry relative="1" as="geometry" />
        </mxCell>
        <mxCell id="-8dKipwocMkaaqdaRbaH-51" value="medical_councli_no" style="ellipse;whiteSpace=wrap;html=1;align=center;" parent="1" vertex="1">
          <mxGeometry x="1165" y="270" width="110" height="50" as="geometry" />
        </mxCell>
        <mxCell id="-8dKipwocMkaaqdaRbaH-52" value="" style="edgeStyle=orthogonalEdgeStyle;shape=link;rounded=0;orthogonalLoop=1;jettySize=auto;html=1;startFill=0;endArrow=none;endFill=0;strokeWidth=1;" parent="1" source="-8dKipwocMkaaqdaRbaH-55" target="-8dKipwocMkaaqdaRbaH-2" edge="1">
          <mxGeometry relative="1" as="geometry" />
        </mxCell>
        <mxCell id="-8dKipwocMkaaqdaRbaH-53" style="edgeStyle=orthogonalEdgeStyle;rounded=0;orthogonalLoop=1;jettySize=auto;html=1;exitX=0;exitY=0.5;exitDx=0;exitDy=0;startFill=0;endArrow=none;endFill=0;strokeWidth=1;entryX=0.5;entryY=0;entryDx=0;entryDy=0;" parent="1" source="-8dKipwocMkaaqdaRbaH-55" target="-8dKipwocMkaaqdaRbaH-25" edge="1">
          <mxGeometry relative="1" as="geometry">
            <mxPoint x="1585" y="320" as="targetPoint" />
          </mxGeometry>
        </mxCell>
        <mxCell id="-8dKipwocMkaaqdaRbaH-54" style="edgeStyle=orthogonalEdgeStyle;rounded=0;orthogonalLoop=1;jettySize=auto;html=1;startFill=0;endArrow=none;endFill=0;strokeWidth=1;" parent="1" source="-8dKipwocMkaaqdaRbaH-55" target="-8dKipwocMkaaqdaRbaH-26" edge="1">
          <mxGeometry relative="1" as="geometry" />
        </mxCell>
        <mxCell id="-8dKipwocMkaaqdaRbaH-55" value="d" style="ellipse;whiteSpace=wrap;html=1;aspect=fixed;" parent="1" vertex="1">
          <mxGeometry x="1630" y="260" width="30" height="30" as="geometry" />
        </mxCell>
        <mxCell id="-8dKipwocMkaaqdaRbaH-56" value="" style="edgeStyle=orthogonalEdgeStyle;rounded=0;orthogonalLoop=1;jettySize=auto;html=1;startFill=0;endArrow=none;endFill=0;strokeWidth=1;" parent="1" source="-8dKipwocMkaaqdaRbaH-59" target="-8dKipwocMkaaqdaRbaH-26" edge="1">
          <mxGeometry relative="1" as="geometry" />
        </mxCell>
        <mxCell id="-8dKipwocMkaaqdaRbaH-57" style="edgeStyle=orthogonalEdgeStyle;rounded=0;orthogonalLoop=1;jettySize=auto;html=1;exitX=0;exitY=0.5;exitDx=0;exitDy=0;entryX=0.5;entryY=0;entryDx=0;entryDy=0;startFill=0;endArrow=none;endFill=0;strokeWidth=1;" parent="1" source="-8dKipwocMkaaqdaRbaH-59" target="-8dKipwocMkaaqdaRbaH-28" edge="1">
          <mxGeometry relative="1" as="geometry" />
        </mxCell>
        <mxCell id="-8dKipwocMkaaqdaRbaH-58" style="edgeStyle=orthogonalEdgeStyle;rounded=0;orthogonalLoop=1;jettySize=auto;html=1;startFill=0;endArrow=none;endFill=0;strokeWidth=1;" parent="1" source="-8dKipwocMkaaqdaRbaH-59" target="-8dKipwocMkaaqdaRbaH-27" edge="1">
          <mxGeometry relative="1" as="geometry" />
        </mxCell>
        <mxCell id="-8dKipwocMkaaqdaRbaH-59" value="d" style="ellipse;whiteSpace=wrap;html=1;aspect=fixed;" parent="1" vertex="1">
          <mxGeometry x="1710" y="400" width="30" height="30" as="geometry" />
        </mxCell>
        <mxCell id="-8dKipwocMkaaqdaRbaH-60" style="edgeStyle=orthogonalEdgeStyle;rounded=0;orthogonalLoop=1;jettySize=auto;html=1;entryX=0.5;entryY=1;entryDx=0;entryDy=0;startFill=0;endArrow=none;endFill=0;strokeWidth=1;shape=link;" parent="1" source="-8dKipwocMkaaqdaRbaH-63" target="-8dKipwocMkaaqdaRbaH-25" edge="1">
          <mxGeometry relative="1" as="geometry" />
        </mxCell>
        <mxCell id="-8dKipwocMkaaqdaRbaH-61" style="edgeStyle=orthogonalEdgeStyle;rounded=0;orthogonalLoop=1;jettySize=auto;html=1;entryX=0.5;entryY=0;entryDx=0;entryDy=0;startFill=0;endArrow=none;endFill=0;strokeWidth=1;" parent="1" source="-8dKipwocMkaaqdaRbaH-63" target="-8dKipwocMkaaqdaRbaH-33" edge="1">
          <mxGeometry relative="1" as="geometry" />
        </mxCell>
        <mxCell id="-8dKipwocMkaaqdaRbaH-62" style="edgeStyle=orthogonalEdgeStyle;rounded=0;orthogonalLoop=1;jettySize=auto;html=1;entryX=0.25;entryY=0;entryDx=0;entryDy=0;startFill=0;endArrow=none;endFill=0;strokeWidth=1;" parent="1" source="-8dKipwocMkaaqdaRbaH-63" target="-8dKipwocMkaaqdaRbaH-42" edge="1">
          <mxGeometry relative="1" as="geometry" />
        </mxCell>
        <mxCell id="-8dKipwocMkaaqdaRbaH-63" value="d" style="ellipse;whiteSpace=wrap;html=1;aspect=fixed;" parent="1" vertex="1">
          <mxGeometry x="1325" y="420" width="30" height="30" as="geometry" />
        </mxCell>
        <mxCell id="-8dKipwocMkaaqdaRbaH-64" style="edgeStyle=orthogonalEdgeStyle;rounded=0;orthogonalLoop=1;jettySize=auto;html=1;entryX=0.864;entryY=1.017;entryDx=0;entryDy=0;entryPerimeter=0;startFill=0;endArrow=none;endFill=0;strokeWidth=1;" parent="1" source="-8dKipwocMkaaqdaRbaH-65" target="-8dKipwocMkaaqdaRbaH-70" edge="1">
          <mxGeometry relative="1" as="geometry" />
        </mxCell>
        <mxCell id="-8dKipwocMkaaqdaRbaH-65" value="address_of_branch" style="ellipse;whiteSpace=wrap;html=1;align=center;" parent="1" vertex="1">
          <mxGeometry x="2685" y="1110" width="120" height="40" as="geometry" />
        </mxCell>
        <mxCell id="-8dKipwocMkaaqdaRbaH-66" value="&lt;span style=&quot;color: rgba(0 , 0 , 0 , 0) ; font-family: monospace ; font-size: 0px&quot;&gt;%3CmxGraphModel%3E%3Croot%3E%3CmxCell%20id%3D%220%22%2F%3E%3CmxCell%20id%3D%221%22%20parent%3D%220%22%2F%3E%3CmxCell%20id%3D%222%22%20value%3D%22date_of_birth%22%20style%3D%22ellipse%3BwhiteSpace%3Dwrap%3Bhtml%3D1%3Balign%3Dcenter%3B%22%20vertex%3D%221%22%20parent%3D%221%22%3E%3CmxGeometry%20x%3D%22350%22%20y%3D%221260%22%20width%3D%22100%22%20height%3D%2240%22%20as%3D%22geometry%22%2F%3E%3C%2FmxCell%3E%3C%2Froot%3E%3C%2FmxGraphModel%3E&lt;/span&gt;" style="text;html=1;align=center;verticalAlign=middle;resizable=0;points=[];autosize=1;strokeColor=none;fillColor=none;" parent="1" vertex="1">
          <mxGeometry x="1515" y="1050" width="20" height="20" as="geometry" />
        </mxCell>
        <mxCell id="-8dKipwocMkaaqdaRbaH-67" style="edgeStyle=orthogonalEdgeStyle;rounded=0;orthogonalLoop=1;jettySize=auto;html=1;entryX=1;entryY=0.5;entryDx=0;entryDy=0;startFill=0;endArrow=none;endFill=0;strokeWidth=1;shape=link;" parent="1" source="-8dKipwocMkaaqdaRbaH-70" target="-8dKipwocMkaaqdaRbaH-185" edge="1">
          <mxGeometry relative="1" as="geometry" />
        </mxCell>
        <mxCell id="-8dKipwocMkaaqdaRbaH-68" value="N" style="edgeLabel;html=1;align=center;verticalAlign=middle;resizable=0;points=[];fontSize=16;" parent="-8dKipwocMkaaqdaRbaH-67" vertex="1" connectable="0">
          <mxGeometry x="-0.2165" y="2" relative="1" as="geometry">
            <mxPoint as="offset" />
          </mxGeometry>
        </mxCell>
        <mxCell id="-8dKipwocMkaaqdaRbaH-69" style="edgeStyle=orthogonalEdgeStyle;rounded=0;orthogonalLoop=1;jettySize=auto;html=1;exitX=0.25;exitY=1;exitDx=0;exitDy=0;endArrow=none;endFill=0;entryX=0.5;entryY=0;entryDx=0;entryDy=0;" parent="1" source="-8dKipwocMkaaqdaRbaH-70" target="-8dKipwocMkaaqdaRbaH-266" edge="1">
          <mxGeometry relative="1" as="geometry">
            <mxPoint x="2525" y="1210" as="targetPoint" />
            <Array as="points">
              <mxPoint x="2527" y="1165" />
              <mxPoint x="2530" y="1165" />
              <mxPoint x="2530" y="1220" />
              <mxPoint x="2525" y="1220" />
            </Array>
          </mxGeometry>
        </mxCell>
        <mxCell id="-8dKipwocMkaaqdaRbaH-70" value="insurace_company" style="shape=ext;margin=3;double=1;whiteSpace=wrap;html=1;align=center;" parent="1" vertex="1">
          <mxGeometry x="2490" y="1070" width="150" height="40" as="geometry" />
        </mxCell>
        <mxCell id="-8dKipwocMkaaqdaRbaH-71" style="edgeStyle=orthogonalEdgeStyle;rounded=0;orthogonalLoop=1;jettySize=auto;html=1;entryX=0.4;entryY=0.25;entryDx=0;entryDy=0;entryPerimeter=0;startFill=0;endArrow=none;endFill=0;strokeWidth=1;" parent="1" source="-8dKipwocMkaaqdaRbaH-73" target="-8dKipwocMkaaqdaRbaH-85" edge="1">
          <mxGeometry relative="1" as="geometry" />
        </mxCell>
        <mxCell id="-8dKipwocMkaaqdaRbaH-72" style="edgeStyle=orthogonalEdgeStyle;rounded=0;orthogonalLoop=1;jettySize=auto;html=1;exitX=0.75;exitY=1;exitDx=0;exitDy=0;entryX=0.5;entryY=0;entryDx=0;entryDy=0;startFill=0;endArrow=none;endFill=0;strokeWidth=1;" parent="1" source="-8dKipwocMkaaqdaRbaH-73" target="-8dKipwocMkaaqdaRbaH-189" edge="1">
          <mxGeometry relative="1" as="geometry">
            <Array as="points">
              <mxPoint x="2160" y="1330" />
              <mxPoint x="2245" y="1330" />
            </Array>
          </mxGeometry>
        </mxCell>
        <mxCell id="-8dKipwocMkaaqdaRbaH-73" value="emergency_contact" style="shape=ext;margin=3;double=1;whiteSpace=wrap;html=1;align=center;" parent="1" vertex="1">
          <mxGeometry x="2055" y="1270" width="140" height="50" as="geometry" />
        </mxCell>
        <mxCell id="-8dKipwocMkaaqdaRbaH-74" style="edgeStyle=orthogonalEdgeStyle;rounded=0;orthogonalLoop=1;jettySize=auto;html=1;entryX=0.5;entryY=0;entryDx=0;entryDy=0;startFill=0;endArrow=none;endFill=0;strokeWidth=1;shape=link;" parent="1" source="-8dKipwocMkaaqdaRbaH-76" target="-8dKipwocMkaaqdaRbaH-73" edge="1">
          <mxGeometry relative="1" as="geometry" />
        </mxCell>
        <mxCell id="-8dKipwocMkaaqdaRbaH-75" value="N" style="edgeLabel;html=1;align=center;verticalAlign=middle;resizable=0;points=[];fontSize=16;" parent="-8dKipwocMkaaqdaRbaH-74" vertex="1" connectable="0">
          <mxGeometry x="0.24" relative="1" as="geometry">
            <mxPoint as="offset" />
          </mxGeometry>
        </mxCell>
        <mxCell id="-8dKipwocMkaaqdaRbaH-76" value="have" style="shape=rhombus;double=1;perimeter=rhombusPerimeter;whiteSpace=wrap;html=1;align=center;" parent="1" vertex="1">
          <mxGeometry x="2065" y="1160" width="120" height="60" as="geometry" />
        </mxCell>
        <mxCell id="-8dKipwocMkaaqdaRbaH-79" style="edgeStyle=orthogonalEdgeStyle;rounded=0;orthogonalLoop=1;jettySize=auto;html=1;entryX=0.5;entryY=0;entryDx=0;entryDy=0;startFill=0;endArrow=none;endFill=0;strokeWidth=1;" parent="1" source="-8dKipwocMkaaqdaRbaH-80" target="-8dKipwocMkaaqdaRbaH-70" edge="1">
          <mxGeometry relative="1" as="geometry" />
        </mxCell>
        <mxCell id="-8dKipwocMkaaqdaRbaH-80" value="&lt;u&gt;name&lt;/u&gt;" style="ellipse;whiteSpace=wrap;html=1;align=center;" parent="1" vertex="1">
          <mxGeometry x="2555" y="1000" width="100" height="40" as="geometry" />
        </mxCell>
        <mxCell id="-8dKipwocMkaaqdaRbaH-81" style="edgeStyle=orthogonalEdgeStyle;rounded=0;orthogonalLoop=1;jettySize=auto;html=1;entryX=1;entryY=0.5;entryDx=0;entryDy=0;startFill=0;endArrow=none;endFill=0;strokeWidth=1;" parent="1" source="-8dKipwocMkaaqdaRbaH-82" target="-8dKipwocMkaaqdaRbaH-70" edge="1">
          <mxGeometry relative="1" as="geometry" />
        </mxCell>
        <mxCell id="-8dKipwocMkaaqdaRbaH-82" value="branch" style="ellipse;whiteSpace=wrap;html=1;align=center;" parent="1" vertex="1">
          <mxGeometry x="2705" y="1040" width="100" height="40" as="geometry" />
        </mxCell>
        <mxCell id="-8dKipwocMkaaqdaRbaH-83" style="edgeStyle=orthogonalEdgeStyle;rounded=0;orthogonalLoop=1;jettySize=auto;html=1;entryX=0;entryY=0.5;entryDx=0;entryDy=0;startFill=0;endArrow=none;endFill=0;strokeWidth=1;" parent="1" source="-8dKipwocMkaaqdaRbaH-84" target="-8dKipwocMkaaqdaRbaH-73" edge="1">
          <mxGeometry relative="1" as="geometry" />
        </mxCell>
        <mxCell id="-8dKipwocMkaaqdaRbaH-84" value="&#xa;&#xa;&lt;span style=&quot;color: rgb(0, 0, 0); font-family: helvetica; font-size: 12px; font-style: normal; font-weight: 400; letter-spacing: normal; text-align: center; text-indent: 0px; text-transform: none; word-spacing: 0px; background-color: rgb(248, 249, 250); display: inline; float: none;&quot;&gt;contact_no&lt;/span&gt;&#xa;&#xa;" style="ellipse;shape=doubleEllipse;margin=3;whiteSpace=wrap;html=1;align=center;" parent="1" vertex="1">
          <mxGeometry x="1900" y="1280" width="100" height="40" as="geometry" />
        </mxCell>
        <mxCell id="-8dKipwocMkaaqdaRbaH-85" value="address" style="ellipse;whiteSpace=wrap;html=1;align=center;" parent="1" vertex="1">
          <mxGeometry x="2085" y="1370" width="100" height="40" as="geometry" />
        </mxCell>
        <mxCell id="-8dKipwocMkaaqdaRbaH-86" style="edgeStyle=orthogonalEdgeStyle;rounded=0;orthogonalLoop=1;jettySize=auto;html=1;entryX=0;entryY=1;entryDx=0;entryDy=0;startFill=0;endArrow=none;endFill=0;strokeWidth=1;" parent="1" source="-8dKipwocMkaaqdaRbaH-87" target="-8dKipwocMkaaqdaRbaH-73" edge="1">
          <mxGeometry relative="1" as="geometry" />
        </mxCell>
        <mxCell id="-8dKipwocMkaaqdaRbaH-87" value="relationship" style="ellipse;whiteSpace=wrap;html=1;align=center;" parent="1" vertex="1">
          <mxGeometry x="1955" y="1370" width="100" height="40" as="geometry" />
        </mxCell>
        <mxCell id="-8dKipwocMkaaqdaRbaH-88" style="edgeStyle=orthogonalEdgeStyle;rounded=0;orthogonalLoop=1;jettySize=auto;html=1;startFill=0;endArrow=none;endFill=0;strokeWidth=1;entryX=1;entryY=0.5;entryDx=0;entryDy=0;exitX=0.25;exitY=1;exitDx=0;exitDy=0;" parent="1" source="-8dKipwocMkaaqdaRbaH-242" target="-8dKipwocMkaaqdaRbaH-205" edge="1">
          <mxGeometry relative="1" as="geometry">
            <mxPoint x="2365" y="780" as="targetPoint" />
            <mxPoint x="3035" y="360" as="sourcePoint" />
            <Array as="points">
              <mxPoint x="3073" y="780" />
            </Array>
          </mxGeometry>
        </mxCell>
        <mxCell id="-8dKipwocMkaaqdaRbaH-89" value="1" style="edgeLabel;html=1;align=center;verticalAlign=middle;resizable=0;points=[];fontSize=16;" parent="-8dKipwocMkaaqdaRbaH-88" vertex="1" connectable="0">
          <mxGeometry x="-0.2302" y="-2" relative="1" as="geometry">
            <mxPoint as="offset" />
          </mxGeometry>
        </mxCell>
        <mxCell id="-8dKipwocMkaaqdaRbaH-90" style="edgeStyle=orthogonalEdgeStyle;rounded=0;orthogonalLoop=1;jettySize=auto;html=1;startFill=0;endArrow=none;endFill=0;strokeWidth=1;entryX=0;entryY=0.5;entryDx=0;entryDy=0;" parent="1" source="-8dKipwocMkaaqdaRbaH-92" target="-8dKipwocMkaaqdaRbaH-245" edge="1">
          <mxGeometry relative="1" as="geometry">
            <mxPoint x="2825" y="280" as="targetPoint" />
          </mxGeometry>
        </mxCell>
        <mxCell id="-8dKipwocMkaaqdaRbaH-91" value="1" style="edgeLabel;html=1;align=center;verticalAlign=middle;resizable=0;points=[];fontSize=16;" parent="-8dKipwocMkaaqdaRbaH-90" vertex="1" connectable="0">
          <mxGeometry x="-0.1429" y="-1" relative="1" as="geometry">
            <mxPoint as="offset" />
          </mxGeometry>
        </mxCell>
        <mxCell id="-8dKipwocMkaaqdaRbaH-92" value="ward" style="whiteSpace=wrap;html=1;align=center;" parent="1" vertex="1">
          <mxGeometry x="2645" y="260" width="100" height="40" as="geometry" />
        </mxCell>
        <mxCell id="-8dKipwocMkaaqdaRbaH-93" style="edgeStyle=orthogonalEdgeStyle;rounded=0;orthogonalLoop=1;jettySize=auto;html=1;entryX=0;entryY=0.5;entryDx=0;entryDy=0;startFill=0;endArrow=none;endFill=0;strokeWidth=1;exitX=0.5;exitY=0;exitDx=0;exitDy=0;" parent="1" source="-8dKipwocMkaaqdaRbaH-94" target="-8dKipwocMkaaqdaRbaH-99" edge="1">
          <mxGeometry relative="1" as="geometry" />
        </mxCell>
        <mxCell id="-8dKipwocMkaaqdaRbaH-94" value="diagnostic_unit" style="whiteSpace=wrap;html=1;align=center;" parent="1" vertex="1">
          <mxGeometry x="2405" y="260" width="100" height="40" as="geometry" />
        </mxCell>
        <mxCell id="-8dKipwocMkaaqdaRbaH-95" value="" style="edgeStyle=orthogonalEdgeStyle;rounded=0;orthogonalLoop=1;jettySize=auto;html=1;startFill=0;endArrow=none;endFill=0;strokeWidth=1;" parent="1" source="-8dKipwocMkaaqdaRbaH-96" target="-8dKipwocMkaaqdaRbaH-99" edge="1">
          <mxGeometry relative="1" as="geometry" />
        </mxCell>
        <mxCell id="-8dKipwocMkaaqdaRbaH-96" value="paitent_care_units" style="whiteSpace=wrap;html=1;align=center;" parent="1" vertex="1">
          <mxGeometry x="2515" y="100" width="130" height="40" as="geometry" />
        </mxCell>
        <mxCell id="-8dKipwocMkaaqdaRbaH-97" style="edgeStyle=orthogonalEdgeStyle;rounded=0;orthogonalLoop=1;jettySize=auto;html=1;entryX=0.5;entryY=0;entryDx=0;entryDy=0;startFill=0;endArrow=none;endFill=0;strokeWidth=1;" parent="1" source="-8dKipwocMkaaqdaRbaH-99" target="-8dKipwocMkaaqdaRbaH-92" edge="1">
          <mxGeometry relative="1" as="geometry" />
        </mxCell>
        <mxCell id="-8dKipwocMkaaqdaRbaH-99" value="U" style="ellipse;whiteSpace=wrap;html=1;aspect=fixed;" parent="1" vertex="1">
          <mxGeometry x="2565" y="200" width="30" height="30" as="geometry" />
        </mxCell>
        <mxCell id="-8dKipwocMkaaqdaRbaH-100" value="" style="edgeStyle=orthogonalEdgeStyle;rounded=0;orthogonalLoop=1;jettySize=auto;html=1;startFill=0;endArrow=none;endFill=0;strokeWidth=1;entryX=0.25;entryY=1;entryDx=0;entryDy=0;" parent="1" source="-8dKipwocMkaaqdaRbaH-101" target="-8dKipwocMkaaqdaRbaH-92" edge="1">
          <mxGeometry relative="1" as="geometry" />
        </mxCell>
        <mxCell id="-8dKipwocMkaaqdaRbaH-101" value="ward_name" style="ellipse;whiteSpace=wrap;html=1;align=center;" parent="1" vertex="1">
          <mxGeometry x="2575" y="350" width="100" height="40" as="geometry" />
        </mxCell>
        <mxCell id="-8dKipwocMkaaqdaRbaH-102" value="" style="edgeStyle=orthogonalEdgeStyle;rounded=0;orthogonalLoop=1;jettySize=auto;html=1;startFill=0;endArrow=none;endFill=0;strokeWidth=1;" parent="1" source="-8dKipwocMkaaqdaRbaH-103" target="-8dKipwocMkaaqdaRbaH-94" edge="1">
          <mxGeometry relative="1" as="geometry" />
        </mxCell>
        <mxCell id="-8dKipwocMkaaqdaRbaH-103" value="&lt;u&gt;unit_identifier&lt;/u&gt;" style="ellipse;whiteSpace=wrap;html=1;align=center;" parent="1" vertex="1">
          <mxGeometry x="2435" y="350" width="100" height="40" as="geometry" />
        </mxCell>
        <mxCell id="-8dKipwocMkaaqdaRbaH-104" style="edgeStyle=orthogonalEdgeStyle;rounded=0;orthogonalLoop=1;jettySize=auto;html=1;entryX=0.25;entryY=1;entryDx=0;entryDy=0;startFill=0;endArrow=none;endFill=0;strokeWidth=1;" parent="1" source="-8dKipwocMkaaqdaRbaH-105" target="-8dKipwocMkaaqdaRbaH-94" edge="1">
          <mxGeometry relative="1" as="geometry" />
        </mxCell>
        <mxCell id="-8dKipwocMkaaqdaRbaH-105" value="unit_name" style="ellipse;whiteSpace=wrap;html=1;align=center;" parent="1" vertex="1">
          <mxGeometry x="2325" y="350" width="100" height="40" as="geometry" />
        </mxCell>
        <mxCell id="-8dKipwocMkaaqdaRbaH-106" style="edgeStyle=orthogonalEdgeStyle;rounded=0;orthogonalLoop=1;jettySize=auto;html=1;startFill=0;endArrow=none;endFill=0;strokeWidth=1;entryX=0.813;entryY=1.066;entryDx=0;entryDy=0;shape=link;entryPerimeter=0;" parent="1" source="-8dKipwocMkaaqdaRbaH-110" target="-8dKipwocMkaaqdaRbaH-2" edge="1">
          <mxGeometry relative="1" as="geometry">
            <mxPoint x="1845" y="210" as="targetPoint" />
          </mxGeometry>
        </mxCell>
        <mxCell id="-8dKipwocMkaaqdaRbaH-107" value="&lt;font style=&quot;font-size: 16px&quot;&gt;M&lt;/font&gt;" style="edgeLabel;html=1;align=center;verticalAlign=middle;resizable=0;points=[];" parent="-8dKipwocMkaaqdaRbaH-106" vertex="1" connectable="0">
          <mxGeometry x="-0.269" y="-2" relative="1" as="geometry">
            <mxPoint as="offset" />
          </mxGeometry>
        </mxCell>
        <mxCell id="-8dKipwocMkaaqdaRbaH-108" style="edgeStyle=orthogonalEdgeStyle;rounded=0;orthogonalLoop=1;jettySize=auto;html=1;entryX=0;entryY=0.75;entryDx=0;entryDy=0;startFill=0;endArrow=none;endFill=0;strokeWidth=1;" parent="1" source="-8dKipwocMkaaqdaRbaH-110" target="-8dKipwocMkaaqdaRbaH-96" edge="1">
          <mxGeometry relative="1" as="geometry">
            <Array as="points">
              <mxPoint x="2205" y="120" />
              <mxPoint x="2515" y="120" />
            </Array>
          </mxGeometry>
        </mxCell>
        <mxCell id="-8dKipwocMkaaqdaRbaH-109" value="N" style="edgeLabel;html=1;align=center;verticalAlign=middle;resizable=0;points=[];fontSize=16;" parent="-8dKipwocMkaaqdaRbaH-108" vertex="1" connectable="0">
          <mxGeometry x="-0.0818" y="3" relative="1" as="geometry">
            <mxPoint as="offset" />
          </mxGeometry>
        </mxCell>
        <mxCell id="-8dKipwocMkaaqdaRbaH-110" value="assigned" style="shape=rhombus;perimeter=rhombusPerimeter;whiteSpace=wrap;html=1;align=center;" parent="1" vertex="1">
          <mxGeometry x="2085" y="230" width="120" height="60" as="geometry" />
        </mxCell>
        <mxCell id="-8dKipwocMkaaqdaRbaH-111" style="edgeStyle=orthogonalEdgeStyle;rounded=0;orthogonalLoop=1;jettySize=auto;html=1;startFill=0;endArrow=none;endFill=0;strokeWidth=1;" parent="1" source="-8dKipwocMkaaqdaRbaH-112" target="-8dKipwocMkaaqdaRbaH-110" edge="1">
          <mxGeometry relative="1" as="geometry" />
        </mxCell>
        <mxCell id="-8dKipwocMkaaqdaRbaH-112" value="hours_per_week" style="ellipse;whiteSpace=wrap;html=1;align=center;" parent="1" vertex="1">
          <mxGeometry x="2095" y="340" width="100" height="40" as="geometry" />
        </mxCell>
        <mxCell id="-8dKipwocMkaaqdaRbaH-113" style="edgeStyle=orthogonalEdgeStyle;rounded=0;orthogonalLoop=1;jettySize=auto;html=1;entryX=0;entryY=0.25;entryDx=0;entryDy=0;startFill=0;endArrow=none;endFill=0;strokeWidth=1;" parent="1" source="-8dKipwocMkaaqdaRbaH-118" target="-8dKipwocMkaaqdaRbaH-96" edge="1">
          <mxGeometry relative="1" as="geometry" />
        </mxCell>
        <mxCell id="-8dKipwocMkaaqdaRbaH-114" value="&lt;font style=&quot;font-size: 16px&quot;&gt;1&lt;/font&gt;" style="edgeLabel;html=1;align=center;verticalAlign=middle;resizable=0;points=[];" parent="-8dKipwocMkaaqdaRbaH-113" vertex="1" connectable="0">
          <mxGeometry x="-0.3084" y="-2" relative="1" as="geometry">
            <mxPoint as="offset" />
          </mxGeometry>
        </mxCell>
        <mxCell id="-8dKipwocMkaaqdaRbaH-115" style="edgeStyle=orthogonalEdgeStyle;rounded=0;orthogonalLoop=1;jettySize=auto;html=1;entryX=1;entryY=0.75;entryDx=0;entryDy=0;startFill=0;endArrow=none;endFill=0;strokeWidth=1;shape=link;" parent="1" source="-8dKipwocMkaaqdaRbaH-118" target="-8dKipwocMkaaqdaRbaH-2" edge="1">
          <mxGeometry relative="1" as="geometry" />
        </mxCell>
        <mxCell id="-8dKipwocMkaaqdaRbaH-116" value="1" style="edgeLabel;html=1;align=center;verticalAlign=middle;resizable=0;points=[];" parent="-8dKipwocMkaaqdaRbaH-115" vertex="1" connectable="0">
          <mxGeometry x="-0.0606" y="-2" relative="1" as="geometry">
            <mxPoint as="offset" />
          </mxGeometry>
        </mxCell>
        <mxCell id="-8dKipwocMkaaqdaRbaH-117" value="&lt;font style=&quot;font-size: 16px&quot;&gt;1&lt;/font&gt;" style="edgeLabel;html=1;align=center;verticalAlign=middle;resizable=0;points=[];" parent="-8dKipwocMkaaqdaRbaH-115" vertex="1" connectable="0">
          <mxGeometry x="-0.0555" relative="1" as="geometry">
            <mxPoint as="offset" />
          </mxGeometry>
        </mxCell>
        <mxCell id="-8dKipwocMkaaqdaRbaH-118" value="in-charge" style="shape=rhombus;perimeter=rhombusPerimeter;whiteSpace=wrap;html=1;align=center;" parent="1" vertex="1">
          <mxGeometry x="2065" y="80" width="120" height="60" as="geometry" />
        </mxCell>
        <mxCell id="-8dKipwocMkaaqdaRbaH-119" style="edgeStyle=orthogonalEdgeStyle;rounded=0;orthogonalLoop=1;jettySize=auto;html=1;entryX=0;entryY=0.5;entryDx=0;entryDy=0;startFill=0;endArrow=none;endFill=0;strokeWidth=1;exitX=1;exitY=1;exitDx=0;exitDy=0;" parent="1" source="-8dKipwocMkaaqdaRbaH-121" target="-8dKipwocMkaaqdaRbaH-124" edge="1">
          <mxGeometry relative="1" as="geometry">
            <Array as="points">
              <mxPoint x="835" y="750" />
            </Array>
          </mxGeometry>
        </mxCell>
        <mxCell id="-8dKipwocMkaaqdaRbaH-120" value="M" style="edgeLabel;html=1;align=center;verticalAlign=middle;resizable=0;points=[];fontSize=16;" parent="-8dKipwocMkaaqdaRbaH-119" vertex="1" connectable="0">
          <mxGeometry x="0.2067" y="4" relative="1" as="geometry">
            <mxPoint as="offset" />
          </mxGeometry>
        </mxCell>
        <mxCell id="-8dKipwocMkaaqdaRbaH-121" value="drug" style="whiteSpace=wrap;html=1;align=center;" parent="1" vertex="1">
          <mxGeometry x="735" y="720" width="100" height="40" as="geometry" />
        </mxCell>
        <mxCell id="-8dKipwocMkaaqdaRbaH-122" style="edgeStyle=orthogonalEdgeStyle;rounded=0;orthogonalLoop=1;jettySize=auto;html=1;startFill=0;endArrow=none;endFill=0;strokeWidth=1;exitX=0.5;exitY=1;exitDx=0;exitDy=0;" parent="1" source="-8dKipwocMkaaqdaRbaH-124" target="-8dKipwocMkaaqdaRbaH-165" edge="1">
          <mxGeometry relative="1" as="geometry">
            <Array as="points">
              <mxPoint x="1055" y="1090" />
            </Array>
          </mxGeometry>
        </mxCell>
        <mxCell id="-8dKipwocMkaaqdaRbaH-123" value="N" style="edgeLabel;html=1;align=center;verticalAlign=middle;resizable=0;points=[];fontSize=16;" parent="-8dKipwocMkaaqdaRbaH-122" vertex="1" connectable="0">
          <mxGeometry x="-0.8385" y="3" relative="1" as="geometry">
            <mxPoint as="offset" />
          </mxGeometry>
        </mxCell>
        <mxCell id="-8dKipwocMkaaqdaRbaH-124" value="treatment" style="shape=rhombus;perimeter=rhombusPerimeter;whiteSpace=wrap;html=1;align=center;" parent="1" vertex="1">
          <mxGeometry x="995" y="720" width="120" height="60" as="geometry" />
        </mxCell>
        <mxCell id="-8dKipwocMkaaqdaRbaH-125" style="edgeStyle=orthogonalEdgeStyle;rounded=0;orthogonalLoop=1;jettySize=auto;html=1;entryX=0;entryY=0.5;entryDx=0;entryDy=0;startFill=0;endArrow=none;endFill=0;strokeWidth=1;" parent="1" source="-8dKipwocMkaaqdaRbaH-130" target="-8dKipwocMkaaqdaRbaH-121" edge="1">
          <mxGeometry relative="1" as="geometry" />
        </mxCell>
        <mxCell id="-8dKipwocMkaaqdaRbaH-126" value="N" style="edgeLabel;html=1;align=center;verticalAlign=middle;resizable=0;points=[];fontSize=16;" parent="-8dKipwocMkaaqdaRbaH-125" vertex="1" connectable="0">
          <mxGeometry x="0.4021" relative="1" as="geometry">
            <mxPoint as="offset" />
          </mxGeometry>
        </mxCell>
        <mxCell id="-8dKipwocMkaaqdaRbaH-127" style="edgeStyle=orthogonalEdgeStyle;rounded=0;orthogonalLoop=1;jettySize=auto;html=1;startFill=0;endArrow=none;endFill=0;strokeWidth=1;entryX=1;entryY=0.5;entryDx=0;entryDy=0;shape=link;" parent="1" source="-8dKipwocMkaaqdaRbaH-130" target="-8dKipwocMkaaqdaRbaH-133" edge="1">
          <mxGeometry relative="1" as="geometry">
            <mxPoint x="235" y="720" as="targetPoint" />
          </mxGeometry>
        </mxCell>
        <mxCell id="-8dKipwocMkaaqdaRbaH-128" value="M" style="edgeLabel;html=1;align=center;verticalAlign=middle;resizable=0;points=[];fontSize=16;" parent="-8dKipwocMkaaqdaRbaH-127" vertex="1" connectable="0">
          <mxGeometry x="0.1111" relative="1" as="geometry">
            <mxPoint as="offset" />
          </mxGeometry>
        </mxCell>
        <mxCell id="-8dKipwocMkaaqdaRbaH-129" style="edgeStyle=orthogonalEdgeStyle;rounded=0;orthogonalLoop=1;jettySize=auto;html=1;entryX=0.357;entryY=1.071;entryDx=0;entryDy=0;entryPerimeter=0;startFill=0;endArrow=none;endFill=0;strokeWidth=1;" parent="1" source="-8dKipwocMkaaqdaRbaH-130" target="-8dKipwocMkaaqdaRbaH-140" edge="1">
          <mxGeometry relative="1" as="geometry" />
        </mxCell>
        <mxCell id="-8dKipwocMkaaqdaRbaH-130" value="supply" style="shape=rhombus;perimeter=rhombusPerimeter;whiteSpace=wrap;html=1;align=center;" parent="1" vertex="1">
          <mxGeometry x="405" y="710" width="120" height="60" as="geometry" />
        </mxCell>
        <mxCell id="-8dKipwocMkaaqdaRbaH-131" style="edgeStyle=orthogonalEdgeStyle;rounded=0;orthogonalLoop=1;jettySize=auto;html=1;exitX=0.5;exitY=1;exitDx=0;exitDy=0;entryX=0.532;entryY=0.03;entryDx=0;entryDy=0;entryPerimeter=0;fontSize=16;startFill=0;endArrow=none;endFill=0;" parent="1" source="-8dKipwocMkaaqdaRbaH-133" target="-8dKipwocMkaaqdaRbaH-148" edge="1">
          <mxGeometry relative="1" as="geometry" />
        </mxCell>
        <mxCell id="-8dKipwocMkaaqdaRbaH-132" value="" style="edgeStyle=orthogonalEdgeStyle;rounded=0;orthogonalLoop=1;jettySize=auto;html=1;fontSize=16;startFill=0;endArrow=none;endFill=0;entryX=0.5;entryY=1;entryDx=0;entryDy=0;" parent="1" source="-8dKipwocMkaaqdaRbaH-133" target="-8dKipwocMkaaqdaRbaH-145" edge="1">
          <mxGeometry relative="1" as="geometry" />
        </mxCell>
        <mxCell id="-8dKipwocMkaaqdaRbaH-133" value="vendor" style="whiteSpace=wrap;html=1;align=center;" parent="1" vertex="1">
          <mxGeometry x="215" y="720" width="100" height="40" as="geometry" />
        </mxCell>
        <mxCell id="-8dKipwocMkaaqdaRbaH-134" style="edgeStyle=orthogonalEdgeStyle;rounded=0;orthogonalLoop=1;jettySize=auto;html=1;entryX=0;entryY=1;entryDx=0;entryDy=0;startFill=0;endArrow=none;endFill=0;strokeWidth=1;" parent="1" source="-8dKipwocMkaaqdaRbaH-135" target="-8dKipwocMkaaqdaRbaH-130" edge="1">
          <mxGeometry relative="1" as="geometry" />
        </mxCell>
        <mxCell id="-8dKipwocMkaaqdaRbaH-135" value="data" style="ellipse;whiteSpace=wrap;html=1;align=center;" parent="1" vertex="1">
          <mxGeometry x="340" y="800" width="100" height="40" as="geometry" />
        </mxCell>
        <mxCell id="-8dKipwocMkaaqdaRbaH-136" style="edgeStyle=orthogonalEdgeStyle;rounded=0;orthogonalLoop=1;jettySize=auto;html=1;startFill=0;endArrow=none;endFill=0;strokeWidth=1;entryX=0.786;entryY=0.722;entryDx=0;entryDy=0;entryPerimeter=0;exitX=0.5;exitY=0;exitDx=0;exitDy=0;" parent="1" source="-8dKipwocMkaaqdaRbaH-137" target="-8dKipwocMkaaqdaRbaH-130" edge="1">
          <mxGeometry relative="1" as="geometry">
            <mxPoint x="500" y="760" as="targetPoint" />
            <Array as="points">
              <mxPoint x="499" y="800" />
              <mxPoint x="499" y="780" />
            </Array>
          </mxGeometry>
        </mxCell>
        <mxCell id="-8dKipwocMkaaqdaRbaH-137" value="quantity" style="ellipse;whiteSpace=wrap;html=1;align=center;" parent="1" vertex="1">
          <mxGeometry x="450" y="800" width="100" height="40" as="geometry" />
        </mxCell>
        <mxCell id="-8dKipwocMkaaqdaRbaH-138" style="edgeStyle=orthogonalEdgeStyle;rounded=0;orthogonalLoop=1;jettySize=auto;html=1;entryX=1;entryY=0;entryDx=0;entryDy=0;startFill=0;endArrow=none;endFill=0;strokeWidth=1;" parent="1" source="-8dKipwocMkaaqdaRbaH-139" target="-8dKipwocMkaaqdaRbaH-130" edge="1">
          <mxGeometry relative="1" as="geometry" />
        </mxCell>
        <mxCell id="-8dKipwocMkaaqdaRbaH-139" value="unit_cost" style="ellipse;whiteSpace=wrap;html=1;align=center;" parent="1" vertex="1">
          <mxGeometry x="525" y="620" width="100" height="40" as="geometry" />
        </mxCell>
        <mxCell id="-8dKipwocMkaaqdaRbaH-140" value="type" style="ellipse;whiteSpace=wrap;html=1;align=center;" parent="1" vertex="1">
          <mxGeometry x="375" y="620" width="100" height="40" as="geometry" />
        </mxCell>
        <mxCell id="-8dKipwocMkaaqdaRbaH-141" style="edgeStyle=orthogonalEdgeStyle;rounded=0;orthogonalLoop=1;jettySize=auto;html=1;startFill=0;endArrow=none;endFill=0;strokeWidth=1;entryX=0.868;entryY=0.676;entryDx=0;entryDy=0;entryPerimeter=0;" parent="1" source="-8dKipwocMkaaqdaRbaH-142" target="-8dKipwocMkaaqdaRbaH-130" edge="1">
          <mxGeometry relative="1" as="geometry">
            <mxPoint x="508" y="750" as="targetPoint" />
          </mxGeometry>
        </mxCell>
        <mxCell id="-8dKipwocMkaaqdaRbaH-142" value="total_cost" style="ellipse;whiteSpace=wrap;html=1;align=center;dashed=1;" parent="1" vertex="1">
          <mxGeometry x="565" y="760" width="100" height="40" as="geometry" />
        </mxCell>
        <mxCell id="-8dKipwocMkaaqdaRbaH-143" style="edgeStyle=orthogonalEdgeStyle;rounded=0;orthogonalLoop=1;jettySize=auto;html=1;entryX=0;entryY=0.75;entryDx=0;entryDy=0;startFill=0;endArrow=none;endFill=0;strokeWidth=1;" parent="1" source="-8dKipwocMkaaqdaRbaH-144" target="-8dKipwocMkaaqdaRbaH-133" edge="1">
          <mxGeometry relative="1" as="geometry" />
        </mxCell>
        <mxCell id="-8dKipwocMkaaqdaRbaH-144" value="&lt;span style=&quot;border-bottom: 1px dotted&quot;&gt;&lt;u&gt;name&lt;/u&gt;&lt;/span&gt;" style="ellipse;whiteSpace=wrap;html=1;align=center;" parent="1" vertex="1">
          <mxGeometry x="40" y="770" width="100" height="40" as="geometry" />
        </mxCell>
        <mxCell id="-8dKipwocMkaaqdaRbaH-145" value="&lt;span style=&quot;border-bottom: 1px dotted&quot;&gt;address&lt;/span&gt;" style="ellipse;whiteSpace=wrap;html=1;align=center;" parent="1" vertex="1">
          <mxGeometry x="215" y="660" width="100" height="40" as="geometry" />
        </mxCell>
        <mxCell id="-8dKipwocMkaaqdaRbaH-146" style="edgeStyle=orthogonalEdgeStyle;rounded=0;orthogonalLoop=1;jettySize=auto;html=1;startFill=0;endArrow=none;endFill=0;strokeWidth=1;exitX=1;exitY=0.5;exitDx=0;exitDy=0;" parent="1" source="-8dKipwocMkaaqdaRbaH-147" edge="1">
          <mxGeometry relative="1" as="geometry">
            <mxPoint x="215" y="730" as="targetPoint" />
            <Array as="points">
              <mxPoint x="170" y="695" />
              <mxPoint x="170" y="730" />
            </Array>
          </mxGeometry>
        </mxCell>
        <mxCell id="-8dKipwocMkaaqdaRbaH-147" value="&lt;span style=&quot;border-bottom: 1px dotted&quot;&gt;registration_no&lt;/span&gt;" style="ellipse;whiteSpace=wrap;html=1;align=center;" parent="1" vertex="1">
          <mxGeometry x="40" y="675" width="100" height="40" as="geometry" />
        </mxCell>
        <mxCell id="-8dKipwocMkaaqdaRbaH-148" value="contact_no" style="ellipse;shape=doubleEllipse;margin=3;whiteSpace=wrap;html=1;align=center;" parent="1" vertex="1">
          <mxGeometry x="210" y="780" width="100" height="40" as="geometry" />
        </mxCell>
        <mxCell id="-8dKipwocMkaaqdaRbaH-149" style="edgeStyle=orthogonalEdgeStyle;rounded=0;orthogonalLoop=1;jettySize=auto;html=1;entryX=0.5;entryY=0;entryDx=0;entryDy=0;startFill=0;endArrow=none;endFill=0;strokeWidth=1;" parent="1" source="-8dKipwocMkaaqdaRbaH-150" target="-8dKipwocMkaaqdaRbaH-121" edge="1">
          <mxGeometry relative="1" as="geometry" />
        </mxCell>
        <mxCell id="-8dKipwocMkaaqdaRbaH-150" value="type" style="ellipse;whiteSpace=wrap;html=1;align=center;" parent="1" vertex="1">
          <mxGeometry x="735" y="630" width="100" height="40" as="geometry" />
        </mxCell>
        <mxCell id="-8dKipwocMkaaqdaRbaH-151" style="edgeStyle=orthogonalEdgeStyle;rounded=0;orthogonalLoop=1;jettySize=auto;html=1;entryX=1;entryY=0.5;entryDx=0;entryDy=0;startFill=0;endArrow=none;endFill=0;strokeWidth=1;" parent="1" source="-8dKipwocMkaaqdaRbaH-152" target="-8dKipwocMkaaqdaRbaH-121" edge="1">
          <mxGeometry relative="1" as="geometry" />
        </mxCell>
        <mxCell id="-8dKipwocMkaaqdaRbaH-152" value="name" style="ellipse;whiteSpace=wrap;html=1;align=center;" parent="1" vertex="1">
          <mxGeometry x="885" y="660" width="100" height="40" as="geometry" />
        </mxCell>
        <mxCell id="-8dKipwocMkaaqdaRbaH-153" style="edgeStyle=orthogonalEdgeStyle;rounded=0;orthogonalLoop=1;jettySize=auto;html=1;entryX=0.5;entryY=1;entryDx=0;entryDy=0;startFill=0;endArrow=none;endFill=0;strokeWidth=1;" parent="1" source="-8dKipwocMkaaqdaRbaH-154" target="-8dKipwocMkaaqdaRbaH-121" edge="1">
          <mxGeometry relative="1" as="geometry" />
        </mxCell>
        <mxCell id="-8dKipwocMkaaqdaRbaH-154" value="&lt;u&gt;code&lt;/u&gt;" style="ellipse;whiteSpace=wrap;html=1;align=center;" parent="1" vertex="1">
          <mxGeometry x="735" y="810" width="100" height="40" as="geometry" />
        </mxCell>
        <mxCell id="-8dKipwocMkaaqdaRbaH-155" style="edgeStyle=orthogonalEdgeStyle;rounded=0;orthogonalLoop=1;jettySize=auto;html=1;startFill=0;endArrow=none;endFill=0;strokeWidth=1;entryX=0.5;entryY=0;entryDx=0;entryDy=0;" parent="1" source="-8dKipwocMkaaqdaRbaH-157" target="-8dKipwocMkaaqdaRbaH-124" edge="1">
          <mxGeometry relative="1" as="geometry">
            <Array as="points">
              <mxPoint x="1040" y="450" />
              <mxPoint x="1040" y="580" />
              <mxPoint x="1055" y="580" />
            </Array>
          </mxGeometry>
        </mxCell>
        <mxCell id="-8dKipwocMkaaqdaRbaH-156" value="M" style="edgeLabel;html=1;align=center;verticalAlign=middle;resizable=0;points=[];fontSize=16;" parent="-8dKipwocMkaaqdaRbaH-155" vertex="1" connectable="0">
          <mxGeometry x="0.5513" y="3" relative="1" as="geometry">
            <mxPoint as="offset" />
          </mxGeometry>
        </mxCell>
        <mxCell id="-8dKipwocMkaaqdaRbaH-157" value="test" style="whiteSpace=wrap;html=1;align=center;" parent="1" vertex="1">
          <mxGeometry x="785" y="430" width="100" height="40" as="geometry" />
        </mxCell>
        <mxCell id="-8dKipwocMkaaqdaRbaH-158" style="edgeStyle=orthogonalEdgeStyle;rounded=0;orthogonalLoop=1;jettySize=auto;html=1;entryX=0.5;entryY=0;entryDx=0;entryDy=0;startFill=0;endArrow=none;endFill=0;strokeWidth=1;" parent="1" source="-8dKipwocMkaaqdaRbaH-159" target="-8dKipwocMkaaqdaRbaH-157" edge="1">
          <mxGeometry relative="1" as="geometry" />
        </mxCell>
        <mxCell id="-8dKipwocMkaaqdaRbaH-159" value="cost" style="ellipse;whiteSpace=wrap;html=1;align=center;" parent="1" vertex="1">
          <mxGeometry x="785" y="360" width="100" height="40" as="geometry" />
        </mxCell>
        <mxCell id="-8dKipwocMkaaqdaRbaH-160" style="edgeStyle=orthogonalEdgeStyle;rounded=0;orthogonalLoop=1;jettySize=auto;html=1;entryX=0;entryY=0.5;entryDx=0;entryDy=0;startFill=0;endArrow=none;endFill=0;strokeWidth=1;" parent="1" source="-8dKipwocMkaaqdaRbaH-161" target="-8dKipwocMkaaqdaRbaH-157" edge="1">
          <mxGeometry relative="1" as="geometry" />
        </mxCell>
        <mxCell id="-8dKipwocMkaaqdaRbaH-161" value="name" style="ellipse;whiteSpace=wrap;html=1;align=center;" parent="1" vertex="1">
          <mxGeometry x="635" y="430" width="100" height="40" as="geometry" />
        </mxCell>
        <mxCell id="-8dKipwocMkaaqdaRbaH-162" style="edgeStyle=orthogonalEdgeStyle;rounded=0;orthogonalLoop=1;jettySize=auto;html=1;entryX=0.5;entryY=1;entryDx=0;entryDy=0;startFill=0;endArrow=none;endFill=0;strokeWidth=1;" parent="1" source="-8dKipwocMkaaqdaRbaH-163" target="-8dKipwocMkaaqdaRbaH-157" edge="1">
          <mxGeometry relative="1" as="geometry" />
        </mxCell>
        <mxCell id="-8dKipwocMkaaqdaRbaH-163" value="&lt;u&gt;code&lt;/u&gt;" style="ellipse;whiteSpace=wrap;html=1;align=center;" parent="1" vertex="1">
          <mxGeometry x="785" y="500" width="100" height="40" as="geometry" />
        </mxCell>
        <mxCell id="-8dKipwocMkaaqdaRbaH-164" style="edgeStyle=orthogonalEdgeStyle;rounded=0;orthogonalLoop=1;jettySize=auto;html=1;entryX=0.5;entryY=1;entryDx=0;entryDy=0;startFill=0;endArrow=none;endFill=0;strokeWidth=1;shape=link;" parent="1" source="-8dKipwocMkaaqdaRbaH-165" target="-8dKipwocMkaaqdaRbaH-182" edge="1">
          <mxGeometry relative="1" as="geometry">
            <Array as="points">
              <mxPoint x="1950" y="1100" />
            </Array>
          </mxGeometry>
        </mxCell>
        <mxCell id="-8dKipwocMkaaqdaRbaH-281" style="edgeStyle=none;shape=link;rounded=0;orthogonalLoop=1;jettySize=auto;html=1;endArrow=none;endFill=0;" parent="1" source="-8dKipwocMkaaqdaRbaH-165" edge="1">
          <mxGeometry relative="1" as="geometry">
            <mxPoint x="1380" y="857" as="targetPoint" />
          </mxGeometry>
        </mxCell>
        <mxCell id="-8dKipwocMkaaqdaRbaH-282" value="N&lt;font size=&quot;1&quot;&gt;&lt;br&gt;&lt;/font&gt;" style="edgeLabel;html=1;align=center;verticalAlign=middle;resizable=0;points=[];" parent="-8dKipwocMkaaqdaRbaH-281" vertex="1" connectable="0">
          <mxGeometry x="-0.1144" y="2" relative="1" as="geometry">
            <mxPoint as="offset" />
          </mxGeometry>
        </mxCell>
        <mxCell id="-8dKipwocMkaaqdaRbaH-165" value="patient" style="whiteSpace=wrap;html=1;align=center;" parent="1" vertex="1">
          <mxGeometry x="1610" y="1080" width="100" height="40" as="geometry" />
        </mxCell>
        <mxCell id="-8dKipwocMkaaqdaRbaH-166" style="edgeStyle=orthogonalEdgeStyle;rounded=0;orthogonalLoop=1;jettySize=auto;html=1;startFill=0;endArrow=none;endFill=0;strokeWidth=1;entryX=0.5;entryY=1;entryDx=0;entryDy=0;" parent="1" source="-8dKipwocMkaaqdaRbaH-167" target="-8dKipwocMkaaqdaRbaH-165" edge="1">
          <mxGeometry relative="1" as="geometry">
            <mxPoint x="1675" y="970" as="targetPoint" />
            <Array as="points">
              <mxPoint x="1685" y="1170" />
              <mxPoint x="1685" y="1130" />
            </Array>
          </mxGeometry>
        </mxCell>
        <mxCell id="-8dKipwocMkaaqdaRbaH-167" value="&lt;u&gt;identifier&lt;/u&gt;" style="ellipse;whiteSpace=wrap;html=1;align=center;" parent="1" vertex="1">
          <mxGeometry x="1695" y="1190" width="100" height="40" as="geometry" />
        </mxCell>
        <mxCell id="-8dKipwocMkaaqdaRbaH-168" style="edgeStyle=orthogonalEdgeStyle;rounded=0;orthogonalLoop=1;jettySize=auto;html=1;entryX=0.5;entryY=1;entryDx=0;entryDy=0;startFill=0;endArrow=none;endFill=0;strokeWidth=1;" parent="1" source="-8dKipwocMkaaqdaRbaH-169" target="-8dKipwocMkaaqdaRbaH-165" edge="1">
          <mxGeometry relative="1" as="geometry">
            <Array as="points">
              <mxPoint x="1635" y="1180" />
              <mxPoint x="1635" y="1130" />
            </Array>
          </mxGeometry>
        </mxCell>
        <mxCell id="-8dKipwocMkaaqdaRbaH-169" value="name" style="ellipse;whiteSpace=wrap;html=1;align=center;" parent="1" vertex="1">
          <mxGeometry x="1530" y="1190" width="100" height="40" as="geometry" />
        </mxCell>
        <mxCell id="-8dKipwocMkaaqdaRbaH-170" style="edgeStyle=orthogonalEdgeStyle;rounded=0;orthogonalLoop=1;jettySize=auto;html=1;entryX=1;entryY=0.5;entryDx=0;entryDy=0;startFill=0;endArrow=none;endFill=0;strokeWidth=1;" parent="1" source="-8dKipwocMkaaqdaRbaH-179" target="-8dKipwocMkaaqdaRbaH-182" edge="1">
          <mxGeometry relative="1" as="geometry">
            <Array as="points">
              <mxPoint x="2065" y="1075" />
            </Array>
          </mxGeometry>
        </mxCell>
        <mxCell id="-8dKipwocMkaaqdaRbaH-171" style="edgeStyle=orthogonalEdgeStyle;rounded=0;orthogonalLoop=1;jettySize=auto;html=1;entryX=0.5;entryY=0;entryDx=0;entryDy=0;startFill=0;endArrow=none;endFill=0;strokeWidth=1;" parent="1" source="-8dKipwocMkaaqdaRbaH-179" target="-8dKipwocMkaaqdaRbaH-76" edge="1">
          <mxGeometry relative="1" as="geometry">
            <Array as="points">
              <mxPoint x="2105" y="1085" />
              <mxPoint x="2125" y="1085" />
            </Array>
          </mxGeometry>
        </mxCell>
        <mxCell id="-8dKipwocMkaaqdaRbaH-172" value="1" style="edgeLabel;html=1;align=center;verticalAlign=middle;resizable=0;points=[];fontSize=16;" parent="-8dKipwocMkaaqdaRbaH-171" vertex="1" connectable="0">
          <mxGeometry x="0.3429" y="-2" relative="1" as="geometry">
            <mxPoint as="offset" />
          </mxGeometry>
        </mxCell>
        <mxCell id="-8dKipwocMkaaqdaRbaH-173" style="edgeStyle=orthogonalEdgeStyle;rounded=0;orthogonalLoop=1;jettySize=auto;html=1;exitX=1;exitY=0.75;exitDx=0;exitDy=0;startFill=0;endArrow=none;endFill=0;strokeWidth=1;entryX=0;entryY=0.5;entryDx=0;entryDy=0;" parent="1" source="-8dKipwocMkaaqdaRbaH-179" target="-8dKipwocMkaaqdaRbaH-185" edge="1">
          <mxGeometry relative="1" as="geometry">
            <mxPoint x="2235" y="1170" as="targetPoint" />
            <Array as="points">
              <mxPoint x="2115" y="1050" />
              <mxPoint x="2235" y="1050" />
              <mxPoint x="2235" y="1090" />
            </Array>
          </mxGeometry>
        </mxCell>
        <mxCell id="-8dKipwocMkaaqdaRbaH-174" value="1" style="edgeLabel;html=1;align=center;verticalAlign=middle;resizable=0;points=[];fontSize=16;" parent="-8dKipwocMkaaqdaRbaH-173" vertex="1" connectable="0">
          <mxGeometry x="0.0455" y="3" relative="1" as="geometry">
            <mxPoint as="offset" />
          </mxGeometry>
        </mxCell>
        <mxCell id="-8dKipwocMkaaqdaRbaH-175" style="edgeStyle=orthogonalEdgeStyle;rounded=0;orthogonalLoop=1;jettySize=auto;html=1;startFill=0;endArrow=none;endFill=0;strokeWidth=1;entryX=0.5;entryY=1;entryDx=0;entryDy=0;" parent="1" source="-8dKipwocMkaaqdaRbaH-179" target="-8dKipwocMkaaqdaRbaH-205" edge="1">
          <mxGeometry relative="1" as="geometry">
            <mxPoint x="2075" y="840" as="targetPoint" />
            <Array as="points">
              <mxPoint x="2065" y="860" />
              <mxPoint x="2115" y="860" />
            </Array>
          </mxGeometry>
        </mxCell>
        <mxCell id="-8dKipwocMkaaqdaRbaH-176" value="N" style="edgeLabel;html=1;align=center;verticalAlign=middle;resizable=0;points=[];fontSize=16;" parent="-8dKipwocMkaaqdaRbaH-175" vertex="1" connectable="0">
          <mxGeometry x="-0.1415" y="-3" relative="1" as="geometry">
            <mxPoint as="offset" />
          </mxGeometry>
        </mxCell>
        <mxCell id="-8dKipwocMkaaqdaRbaH-179" value="in_patient" style="whiteSpace=wrap;html=1;align=center;" parent="1" vertex="1">
          <mxGeometry x="2015" y="970" width="100" height="40" as="geometry" />
        </mxCell>
        <mxCell id="-8dKipwocMkaaqdaRbaH-180" style="edgeStyle=orthogonalEdgeStyle;rounded=0;orthogonalLoop=1;jettySize=auto;html=1;entryX=1;entryY=0.5;entryDx=0;entryDy=0;startFill=0;endArrow=none;endFill=0;strokeWidth=1;" parent="1" source="-8dKipwocMkaaqdaRbaH-181" target="-8dKipwocMkaaqdaRbaH-182" edge="1">
          <mxGeometry relative="1" as="geometry">
            <Array as="points">
              <mxPoint x="1815" y="1075" />
            </Array>
          </mxGeometry>
        </mxCell>
        <mxCell id="-8dKipwocMkaaqdaRbaH-181" value="out_patient" style="whiteSpace=wrap;html=1;align=center;" parent="1" vertex="1">
          <mxGeometry x="1755" y="980" width="100" height="40" as="geometry" />
        </mxCell>
        <mxCell id="-8dKipwocMkaaqdaRbaH-182" value="O" style="ellipse;whiteSpace=wrap;html=1;aspect=fixed;" parent="1" vertex="1">
          <mxGeometry x="1935" y="1060" width="30" height="30" as="geometry" />
        </mxCell>
        <mxCell id="-8dKipwocMkaaqdaRbaH-183" style="edgeStyle=orthogonalEdgeStyle;rounded=0;orthogonalLoop=1;jettySize=auto;html=1;entryX=1;entryY=0.5;entryDx=0;entryDy=0;startFill=0;endArrow=none;endFill=0;strokeWidth=1;" parent="1" source="-8dKipwocMkaaqdaRbaH-184" target="-8dKipwocMkaaqdaRbaH-179" edge="1">
          <mxGeometry relative="1" as="geometry" />
        </mxCell>
        <mxCell id="-8dKipwocMkaaqdaRbaH-184" value="date_of_birth" style="ellipse;whiteSpace=wrap;html=1;align=center;" parent="1" vertex="1">
          <mxGeometry x="2175" y="970" width="100" height="40" as="geometry" />
        </mxCell>
        <mxCell id="-8dKipwocMkaaqdaRbaH-185" value="registered" style="shape=rhombus;double=1;perimeter=rhombusPerimeter;whiteSpace=wrap;html=1;align=center;" parent="1" vertex="1">
          <mxGeometry x="2295" y="1060" width="120" height="60" as="geometry" />
        </mxCell>
        <mxCell id="-8dKipwocMkaaqdaRbaH-186" value="lname" style="ellipse;whiteSpace=wrap;html=1;align=center;" parent="1" vertex="1">
          <mxGeometry x="2195" y="1410" width="100" height="40" as="geometry" />
        </mxCell>
        <mxCell id="-8dKipwocMkaaqdaRbaH-187" style="edgeStyle=orthogonalEdgeStyle;rounded=0;orthogonalLoop=1;jettySize=auto;html=1;exitX=0.5;exitY=1;exitDx=0;exitDy=0;entryX=0.5;entryY=0;entryDx=0;entryDy=0;startFill=0;endArrow=none;endFill=0;strokeWidth=1;" parent="1" source="-8dKipwocMkaaqdaRbaH-189" target="-8dKipwocMkaaqdaRbaH-186" edge="1">
          <mxGeometry relative="1" as="geometry" />
        </mxCell>
        <mxCell id="-8dKipwocMkaaqdaRbaH-188" style="edgeStyle=orthogonalEdgeStyle;rounded=0;orthogonalLoop=1;jettySize=auto;html=1;exitX=1;exitY=0.5;exitDx=0;exitDy=0;entryX=0;entryY=0.5;entryDx=0;entryDy=0;startFill=0;endArrow=none;endFill=0;strokeWidth=1;" parent="1" source="-8dKipwocMkaaqdaRbaH-189" target="-8dKipwocMkaaqdaRbaH-190" edge="1">
          <mxGeometry relative="1" as="geometry" />
        </mxCell>
        <mxCell id="-8dKipwocMkaaqdaRbaH-189" value="name" style="ellipse;whiteSpace=wrap;html=1;align=center;" parent="1" vertex="1">
          <mxGeometry x="2195" y="1350" width="100" height="40" as="geometry" />
        </mxCell>
        <mxCell id="-8dKipwocMkaaqdaRbaH-190" value="fname" style="ellipse;whiteSpace=wrap;html=1;align=center;" parent="1" vertex="1">
          <mxGeometry x="2325" y="1350" width="100" height="40" as="geometry" />
        </mxCell>
        <mxCell id="-8dKipwocMkaaqdaRbaH-191" style="edgeStyle=orthogonalEdgeStyle;rounded=0;orthogonalLoop=1;jettySize=auto;html=1;startFill=0;endArrow=none;endFill=0;strokeWidth=1;entryX=0.5;entryY=1;entryDx=0;entryDy=0;" parent="1" source="-8dKipwocMkaaqdaRbaH-193" target="-8dKipwocMkaaqdaRbaH-196" edge="1">
          <mxGeometry relative="1" as="geometry">
            <mxPoint x="2565" y="460" as="targetPoint" />
            <Array as="points">
              <mxPoint x="1905" y="680" />
              <mxPoint x="2280" y="680" />
              <mxPoint x="2280" y="460" />
            </Array>
          </mxGeometry>
        </mxCell>
        <mxCell id="-8dKipwocMkaaqdaRbaH-192" style="edgeStyle=orthogonalEdgeStyle;rounded=0;orthogonalLoop=1;jettySize=auto;html=1;entryX=0.5;entryY=0;entryDx=0;entryDy=0;startFill=0;endArrow=none;endFill=0;strokeWidth=1;" parent="1" source="-8dKipwocMkaaqdaRbaH-193" target="-8dKipwocMkaaqdaRbaH-181" edge="1">
          <mxGeometry relative="1" as="geometry" />
        </mxCell>
        <mxCell id="-8dKipwocMkaaqdaRbaH-193" value="directed" style="shape=rhombus;perimeter=rhombusPerimeter;whiteSpace=wrap;html=1;align=center;" parent="1" vertex="1">
          <mxGeometry x="1845" y="760" width="120" height="60" as="geometry" />
        </mxCell>
        <mxCell id="-8dKipwocMkaaqdaRbaH-194" style="edgeStyle=orthogonalEdgeStyle;rounded=0;orthogonalLoop=1;jettySize=auto;html=1;entryX=1;entryY=0;entryDx=0;entryDy=0;startFill=0;endArrow=none;endFill=0;strokeWidth=1;" parent="1" source="-8dKipwocMkaaqdaRbaH-195" target="-8dKipwocMkaaqdaRbaH-205" edge="1">
          <mxGeometry relative="1" as="geometry">
            <Array as="points">
              <mxPoint x="2145" y="755" />
            </Array>
          </mxGeometry>
        </mxCell>
        <mxCell id="-8dKipwocMkaaqdaRbaH-195" value="admitted_time" style="ellipse;whiteSpace=wrap;html=1;align=center;" parent="1" vertex="1">
          <mxGeometry x="2195" y="735" width="100" height="40" as="geometry" />
        </mxCell>
        <mxCell id="-8dKipwocMkaaqdaRbaH-286" style="edgeStyle=orthogonalEdgeStyle;rounded=0;orthogonalLoop=1;jettySize=auto;html=1;exitX=0.5;exitY=0;exitDx=0;exitDy=0;entryX=0;entryY=0.75;entryDx=0;entryDy=0;endArrow=none;endFill=0;" parent="1" source="-8dKipwocMkaaqdaRbaH-196" target="-8dKipwocMkaaqdaRbaH-96" edge="1">
          <mxGeometry relative="1" as="geometry">
            <Array as="points">
              <mxPoint x="2275" y="140" />
              <mxPoint x="2515" y="140" />
            </Array>
          </mxGeometry>
        </mxCell>
        <mxCell id="-8dKipwocMkaaqdaRbaH-196" value="&lt;span&gt;opd&lt;/span&gt;" style="whiteSpace=wrap;html=1;align=center;" parent="1" vertex="1">
          <mxGeometry x="2225" y="420" width="100" height="40" as="geometry" />
        </mxCell>
        <mxCell id="-8dKipwocMkaaqdaRbaH-197" style="edgeStyle=orthogonalEdgeStyle;rounded=0;orthogonalLoop=1;jettySize=auto;html=1;startFill=0;endArrow=none;endFill=0;strokeWidth=1;entryX=0.75;entryY=0;entryDx=0;entryDy=0;exitX=0.5;exitY=1;exitDx=0;exitDy=0;" parent="1" source="-8dKipwocMkaaqdaRbaH-201" target="-8dKipwocMkaaqdaRbaH-165" edge="1">
          <mxGeometry relative="1" as="geometry">
            <mxPoint x="1655" y="1070" as="targetPoint" />
          </mxGeometry>
        </mxCell>
        <mxCell id="-8dKipwocMkaaqdaRbaH-198" value="N" style="edgeLabel;html=1;align=center;verticalAlign=middle;resizable=0;points=[];fontSize=16;" parent="-8dKipwocMkaaqdaRbaH-197" vertex="1" connectable="0">
          <mxGeometry x="0.0922" y="-6" relative="1" as="geometry">
            <mxPoint as="offset" />
          </mxGeometry>
        </mxCell>
        <mxCell id="-8dKipwocMkaaqdaRbaH-199" style="edgeStyle=orthogonalEdgeStyle;rounded=0;orthogonalLoop=1;jettySize=auto;html=1;entryX=0.5;entryY=0;entryDx=0;entryDy=0;startFill=0;endArrow=none;endFill=0;strokeWidth=1;" parent="1" source="-8dKipwocMkaaqdaRbaH-201" target="-8dKipwocMkaaqdaRbaH-217" edge="1">
          <mxGeometry relative="1" as="geometry">
            <Array as="points">
              <mxPoint x="1505" y="780" />
              <mxPoint x="1505" y="780" />
            </Array>
          </mxGeometry>
        </mxCell>
        <mxCell id="-8dKipwocMkaaqdaRbaH-200" style="edgeStyle=orthogonalEdgeStyle;rounded=0;orthogonalLoop=1;jettySize=auto;html=1;exitX=0.657;exitY=0.844;exitDx=0;exitDy=0;entryX=0.5;entryY=0;entryDx=0;entryDy=0;startFill=0;endArrow=none;endFill=0;strokeWidth=1;exitPerimeter=0;" parent="1" source="-8dKipwocMkaaqdaRbaH-201" target="-8dKipwocMkaaqdaRbaH-222" edge="1">
          <mxGeometry relative="1" as="geometry">
            <Array as="points">
              <mxPoint x="1544" y="765" />
              <mxPoint x="1560" y="765" />
            </Array>
          </mxGeometry>
        </mxCell>
        <mxCell id="-8dKipwocMkaaqdaRbaH-279" style="edgeStyle=none;rounded=0;orthogonalLoop=1;jettySize=auto;html=1;exitX=1;exitY=0.5;exitDx=0;exitDy=0;entryX=0;entryY=0.5;entryDx=0;entryDy=0;endArrow=none;endFill=0;" parent="1" source="-8dKipwocMkaaqdaRbaH-201" target="-8dKipwocMkaaqdaRbaH-278" edge="1">
          <mxGeometry relative="1" as="geometry" />
        </mxCell>
        <mxCell id="-8dKipwocMkaaqdaRbaH-201" value="report_info" style="shape=rhombus;perimeter=rhombusPerimeter;whiteSpace=wrap;html=1;align=center;" parent="1" vertex="1">
          <mxGeometry x="1465" y="710" width="120" height="60" as="geometry" />
        </mxCell>
        <mxCell id="-8dKipwocMkaaqdaRbaH-202" style="edgeStyle=orthogonalEdgeStyle;rounded=0;orthogonalLoop=1;jettySize=auto;html=1;startFill=0;endArrow=none;endFill=0;strokeWidth=1;entryX=0.5;entryY=1;entryDx=0;entryDy=0;exitX=0.5;exitY=0;exitDx=0;exitDy=0;" parent="1" source="-8dKipwocMkaaqdaRbaH-205" target="-8dKipwocMkaaqdaRbaH-92" edge="1">
          <mxGeometry relative="1" as="geometry">
            <mxPoint x="2695" y="820" as="targetPoint" />
            <Array as="points">
              <mxPoint x="2115" y="710" />
              <mxPoint x="2695" y="710" />
            </Array>
          </mxGeometry>
        </mxCell>
        <mxCell id="-8dKipwocMkaaqdaRbaH-203" value="M" style="edgeLabel;html=1;align=center;verticalAlign=middle;resizable=0;points=[];fontSize=16;" parent="-8dKipwocMkaaqdaRbaH-202" vertex="1" connectable="0">
          <mxGeometry x="0.0286" y="-1" relative="1" as="geometry">
            <mxPoint as="offset" />
          </mxGeometry>
        </mxCell>
        <mxCell id="-8dKipwocMkaaqdaRbaH-204" style="edgeStyle=orthogonalEdgeStyle;rounded=0;orthogonalLoop=1;jettySize=auto;html=1;exitX=1;exitY=1;exitDx=0;exitDy=0;entryX=0;entryY=0.5;entryDx=0;entryDy=0;startFill=0;endArrow=none;endFill=0;strokeWidth=1;" parent="1" source="-8dKipwocMkaaqdaRbaH-205" target="-8dKipwocMkaaqdaRbaH-237" edge="1">
          <mxGeometry relative="1" as="geometry">
            <Array as="points">
              <mxPoint x="2145" y="820" />
            </Array>
          </mxGeometry>
        </mxCell>
        <mxCell id="-8dKipwocMkaaqdaRbaH-205" value="admitted" style="shape=rhombus;perimeter=rhombusPerimeter;whiteSpace=wrap;html=1;align=center;" parent="1" vertex="1">
          <mxGeometry x="2055" y="750" width="120" height="60" as="geometry" />
        </mxCell>
        <mxCell id="-8dKipwocMkaaqdaRbaH-209" style="edgeStyle=orthogonalEdgeStyle;rounded=0;orthogonalLoop=1;jettySize=auto;html=1;entryX=1;entryY=0;entryDx=0;entryDy=0;startFill=0;endArrow=none;endFill=0;strokeWidth=1;" parent="1" source="-8dKipwocMkaaqdaRbaH-210" target="-8dKipwocMkaaqdaRbaH-124" edge="1">
          <mxGeometry relative="1" as="geometry">
            <Array as="points">
              <mxPoint x="1145" y="735" />
            </Array>
          </mxGeometry>
        </mxCell>
        <mxCell id="-8dKipwocMkaaqdaRbaH-210" value="time" style="ellipse;whiteSpace=wrap;html=1;align=center;" parent="1" vertex="1">
          <mxGeometry x="1095" y="670" width="100" height="40" as="geometry" />
        </mxCell>
        <mxCell id="-8dKipwocMkaaqdaRbaH-211" style="edgeStyle=orthogonalEdgeStyle;rounded=0;orthogonalLoop=1;jettySize=auto;html=1;entryX=0.5;entryY=1;entryDx=0;entryDy=0;startFill=0;endArrow=none;endFill=0;strokeWidth=1;" parent="1" source="-8dKipwocMkaaqdaRbaH-212" edge="1">
          <mxGeometry relative="1" as="geometry">
            <mxPoint x="1335" y="870" as="targetPoint" />
          </mxGeometry>
        </mxCell>
        <mxCell id="-8dKipwocMkaaqdaRbaH-212" value="time" style="ellipse;whiteSpace=wrap;html=1;align=center;" parent="1" vertex="1">
          <mxGeometry x="1240" y="980" width="100" height="40" as="geometry" />
        </mxCell>
        <mxCell id="-8dKipwocMkaaqdaRbaH-213" style="edgeStyle=orthogonalEdgeStyle;rounded=0;orthogonalLoop=1;jettySize=auto;html=1;entryX=0;entryY=1;entryDx=0;entryDy=0;startFill=0;endArrow=none;endFill=0;strokeWidth=1;" parent="1" source="-8dKipwocMkaaqdaRbaH-214" edge="1">
          <mxGeometry relative="1" as="geometry">
            <mxPoint x="1305" y="855" as="targetPoint" />
          </mxGeometry>
        </mxCell>
        <mxCell id="-8dKipwocMkaaqdaRbaH-214" value="date" style="ellipse;whiteSpace=wrap;html=1;align=center;" parent="1" vertex="1">
          <mxGeometry x="1160" y="850" width="100" height="40" as="geometry" />
        </mxCell>
        <mxCell id="-8dKipwocMkaaqdaRbaH-215" style="edgeStyle=orthogonalEdgeStyle;rounded=0;orthogonalLoop=1;jettySize=auto;html=1;entryX=0;entryY=0;entryDx=0;entryDy=0;startFill=0;endArrow=none;endFill=0;strokeWidth=1;" parent="1" source="-8dKipwocMkaaqdaRbaH-216" edge="1">
          <mxGeometry relative="1" as="geometry">
            <mxPoint x="1305" y="825" as="targetPoint" />
          </mxGeometry>
        </mxCell>
        <mxCell id="-8dKipwocMkaaqdaRbaH-216" value="description" style="ellipse;whiteSpace=wrap;html=1;align=center;" parent="1" vertex="1">
          <mxGeometry x="1160" y="787" width="100" height="40" as="geometry" />
        </mxCell>
        <mxCell id="-8dKipwocMkaaqdaRbaH-217" value="blood_pressure" style="ellipse;whiteSpace=wrap;html=1;align=center;" parent="1" vertex="1">
          <mxGeometry x="1415" y="795" width="100" height="40" as="geometry" />
        </mxCell>
        <mxCell id="-8dKipwocMkaaqdaRbaH-218" style="edgeStyle=orthogonalEdgeStyle;rounded=0;orthogonalLoop=1;jettySize=auto;html=1;entryX=1;entryY=1;entryDx=0;entryDy=0;startFill=0;endArrow=none;endFill=0;strokeWidth=1;" parent="1" source="-8dKipwocMkaaqdaRbaH-219" target="-8dKipwocMkaaqdaRbaH-201" edge="1">
          <mxGeometry relative="1" as="geometry">
            <Array as="points">
              <mxPoint x="1615" y="755" />
            </Array>
          </mxGeometry>
        </mxCell>
        <mxCell id="-8dKipwocMkaaqdaRbaH-219" value="date" style="ellipse;whiteSpace=wrap;html=1;align=center;" parent="1" vertex="1">
          <mxGeometry x="1565" y="760" width="100" height="40" as="geometry" />
        </mxCell>
        <mxCell id="-8dKipwocMkaaqdaRbaH-220" style="edgeStyle=orthogonalEdgeStyle;rounded=0;orthogonalLoop=1;jettySize=auto;html=1;entryX=1;entryY=0;entryDx=0;entryDy=0;startFill=0;endArrow=none;endFill=0;strokeWidth=1;" parent="1" source="-8dKipwocMkaaqdaRbaH-221" target="-8dKipwocMkaaqdaRbaH-201" edge="1">
          <mxGeometry relative="1" as="geometry">
            <Array as="points">
              <mxPoint x="1575" y="680" />
              <mxPoint x="1575" y="725" />
            </Array>
          </mxGeometry>
        </mxCell>
        <mxCell id="-8dKipwocMkaaqdaRbaH-221" value="tempreture" style="ellipse;whiteSpace=wrap;html=1;align=center;" parent="1" vertex="1">
          <mxGeometry x="1595" y="660" width="100" height="40" as="geometry" />
        </mxCell>
        <mxCell id="-8dKipwocMkaaqdaRbaH-222" value="pulse" style="ellipse;whiteSpace=wrap;html=1;align=center;" parent="1" vertex="1">
          <mxGeometry x="1545" y="825" width="100" height="40" as="geometry" />
        </mxCell>
        <mxCell id="-8dKipwocMkaaqdaRbaH-223" style="edgeStyle=orthogonalEdgeStyle;rounded=0;orthogonalLoop=1;jettySize=auto;html=1;entryX=0;entryY=0;entryDx=0;entryDy=0;startFill=0;endArrow=none;endFill=0;strokeWidth=1;" parent="1" source="-8dKipwocMkaaqdaRbaH-224" target="-8dKipwocMkaaqdaRbaH-201" edge="1">
          <mxGeometry relative="1" as="geometry" />
        </mxCell>
        <mxCell id="-8dKipwocMkaaqdaRbaH-224" value="symptoms" style="ellipse;whiteSpace=wrap;html=1;align=center;" parent="1" vertex="1">
          <mxGeometry x="1455" y="650" width="100" height="40" as="geometry" />
        </mxCell>
        <mxCell id="-8dKipwocMkaaqdaRbaH-225" style="edgeStyle=orthogonalEdgeStyle;rounded=0;orthogonalLoop=1;jettySize=auto;html=1;entryX=0;entryY=1;entryDx=0;entryDy=0;startFill=0;endArrow=none;endFill=0;strokeWidth=1;" parent="1" source="-8dKipwocMkaaqdaRbaH-226" target="-8dKipwocMkaaqdaRbaH-124" edge="1">
          <mxGeometry relative="1" as="geometry">
            <Array as="points">
              <mxPoint x="975" y="765" />
            </Array>
          </mxGeometry>
        </mxCell>
        <mxCell id="-8dKipwocMkaaqdaRbaH-226" value="date" style="ellipse;whiteSpace=wrap;html=1;align=center;" parent="1" vertex="1">
          <mxGeometry x="925" y="800" width="100" height="40" as="geometry" />
        </mxCell>
        <mxCell id="-8dKipwocMkaaqdaRbaH-227" style="edgeStyle=orthogonalEdgeStyle;rounded=0;orthogonalLoop=1;jettySize=auto;html=1;entryX=0.337;entryY=0.836;entryDx=0;entryDy=0;entryPerimeter=0;startFill=0;endArrow=none;endFill=0;strokeWidth=1;" parent="1" source="-8dKipwocMkaaqdaRbaH-228" edge="1">
          <mxGeometry relative="1" as="geometry">
            <Array as="points">
              <mxPoint x="1225" y="900" />
              <mxPoint x="1315" y="900" />
            </Array>
            <mxPoint x="1315.44" y="860.1600000000001" as="targetPoint" />
          </mxGeometry>
        </mxCell>
        <mxCell id="-8dKipwocMkaaqdaRbaH-228" value="code" style="ellipse;whiteSpace=wrap;html=1;align=center;" parent="1" vertex="1">
          <mxGeometry x="1130" y="920" width="100" height="40" as="geometry" />
        </mxCell>
        <mxCell id="-8dKipwocMkaaqdaRbaH-229" style="edgeStyle=orthogonalEdgeStyle;rounded=0;orthogonalLoop=1;jettySize=auto;html=1;entryX=0.7;entryY=0.836;entryDx=0;entryDy=0;entryPerimeter=0;startFill=0;endArrow=none;endFill=0;strokeWidth=1;" parent="1" source="-8dKipwocMkaaqdaRbaH-230" edge="1">
          <mxGeometry relative="1" as="geometry">
            <mxPoint x="1359" y="860.1600000000001" as="targetPoint" />
          </mxGeometry>
        </mxCell>
        <mxCell id="-8dKipwocMkaaqdaRbaH-230" value="name" style="ellipse;whiteSpace=wrap;html=1;align=center;" parent="1" vertex="1">
          <mxGeometry x="1345" y="940" width="100" height="40" as="geometry" />
        </mxCell>
        <mxCell id="-8dKipwocMkaaqdaRbaH-231" style="edgeStyle=orthogonalEdgeStyle;rounded=0;orthogonalLoop=1;jettySize=auto;html=1;entryX=0;entryY=1;entryDx=0;entryDy=0;startFill=0;endArrow=none;endFill=0;strokeWidth=1;" parent="1" source="-8dKipwocMkaaqdaRbaH-232" target="-8dKipwocMkaaqdaRbaH-201" edge="1">
          <mxGeometry relative="1" as="geometry">
            <Array as="points">
              <mxPoint x="1415" y="755" />
            </Array>
          </mxGeometry>
        </mxCell>
        <mxCell id="-8dKipwocMkaaqdaRbaH-232" value="time" style="ellipse;whiteSpace=wrap;html=1;align=center;" parent="1" vertex="1">
          <mxGeometry x="1355" y="750" width="100" height="40" as="geometry" />
        </mxCell>
        <mxCell id="-8dKipwocMkaaqdaRbaH-233" style="edgeStyle=orthogonalEdgeStyle;rounded=0;orthogonalLoop=1;jettySize=auto;html=1;entryX=0;entryY=1;entryDx=0;entryDy=0;startFill=0;endArrow=none;endFill=0;strokeWidth=1;" parent="1" source="-8dKipwocMkaaqdaRbaH-234" target="-8dKipwocMkaaqdaRbaH-205" edge="1">
          <mxGeometry relative="1" as="geometry">
            <Array as="points">
              <mxPoint x="2085" y="820" />
            </Array>
          </mxGeometry>
        </mxCell>
        <mxCell id="-8dKipwocMkaaqdaRbaH-234" value="discharged_time" style="ellipse;whiteSpace=wrap;html=1;align=center;" parent="1" vertex="1">
          <mxGeometry x="1955" y="795" width="100" height="40" as="geometry" />
        </mxCell>
        <mxCell id="-8dKipwocMkaaqdaRbaH-235" style="edgeStyle=orthogonalEdgeStyle;rounded=0;orthogonalLoop=1;jettySize=auto;html=1;exitX=1;exitY=0.5;exitDx=0;exitDy=0;entryX=0;entryY=0;entryDx=0;entryDy=0;startFill=0;endArrow=none;endFill=0;strokeWidth=1;" parent="1" source="-8dKipwocMkaaqdaRbaH-236" target="-8dKipwocMkaaqdaRbaH-205" edge="1">
          <mxGeometry relative="1" as="geometry" />
        </mxCell>
        <mxCell id="-8dKipwocMkaaqdaRbaH-236" value="discharged_date" style="ellipse;whiteSpace=wrap;html=1;align=center;" parent="1" vertex="1">
          <mxGeometry x="1975" y="715" width="100" height="40" as="geometry" />
        </mxCell>
        <mxCell id="-8dKipwocMkaaqdaRbaH-237" value="admitted_date" style="ellipse;whiteSpace=wrap;html=1;align=center;" parent="1" vertex="1">
          <mxGeometry x="2185" y="800" width="100" height="40" as="geometry" />
        </mxCell>
        <mxCell id="-8dKipwocMkaaqdaRbaH-238" style="edgeStyle=orthogonalEdgeStyle;rounded=0;orthogonalLoop=1;jettySize=auto;html=1;entryX=0;entryY=0;entryDx=0;entryDy=0;startFill=0;endArrow=none;endFill=0;strokeWidth=1;" parent="1" source="-8dKipwocMkaaqdaRbaH-239" target="-8dKipwocMkaaqdaRbaH-193" edge="1">
          <mxGeometry relative="1" as="geometry">
            <Array as="points">
              <mxPoint x="1875" y="755" />
            </Array>
          </mxGeometry>
        </mxCell>
        <mxCell id="-8dKipwocMkaaqdaRbaH-239" value="arrived_date" style="ellipse;whiteSpace=wrap;html=1;align=center;" parent="1" vertex="1">
          <mxGeometry x="1745" y="735" width="100" height="40" as="geometry" />
        </mxCell>
        <mxCell id="-8dKipwocMkaaqdaRbaH-240" style="edgeStyle=orthogonalEdgeStyle;rounded=0;orthogonalLoop=1;jettySize=auto;html=1;entryX=0;entryY=1;entryDx=0;entryDy=0;startFill=0;endArrow=none;endFill=0;strokeWidth=1;" parent="1" source="-8dKipwocMkaaqdaRbaH-241" target="-8dKipwocMkaaqdaRbaH-193" edge="1">
          <mxGeometry relative="1" as="geometry">
            <Array as="points">
              <mxPoint x="1875" y="835" />
            </Array>
          </mxGeometry>
        </mxCell>
        <mxCell id="-8dKipwocMkaaqdaRbaH-241" value="arrived_time" style="ellipse;whiteSpace=wrap;html=1;align=center;" parent="1" vertex="1">
          <mxGeometry x="1745" y="815" width="100" height="40" as="geometry" />
        </mxCell>
        <mxCell id="-8dKipwocMkaaqdaRbaH-242" value="beds" style="shape=ext;margin=3;double=1;whiteSpace=wrap;html=1;align=center;" parent="1" vertex="1">
          <mxGeometry x="3035" y="260" width="150" height="40" as="geometry" />
        </mxCell>
        <mxCell id="-8dKipwocMkaaqdaRbaH-243" style="edgeStyle=orthogonalEdgeStyle;rounded=0;orthogonalLoop=1;jettySize=auto;html=1;entryX=0;entryY=0.5;entryDx=0;entryDy=0;startFill=0;endArrow=none;endFill=0;strokeWidth=1;shape=link;" parent="1" source="-8dKipwocMkaaqdaRbaH-245" target="-8dKipwocMkaaqdaRbaH-242" edge="1">
          <mxGeometry relative="1" as="geometry" />
        </mxCell>
        <mxCell id="-8dKipwocMkaaqdaRbaH-244" value="N" style="edgeLabel;html=1;align=center;verticalAlign=middle;resizable=0;points=[];fontSize=16;" parent="-8dKipwocMkaaqdaRbaH-243" vertex="1" connectable="0">
          <mxGeometry x="0.2714" y="3" relative="1" as="geometry">
            <mxPoint as="offset" />
          </mxGeometry>
        </mxCell>
        <mxCell id="-8dKipwocMkaaqdaRbaH-245" value="have" style="shape=rhombus;double=1;perimeter=rhombusPerimeter;whiteSpace=wrap;html=1;align=center;" parent="1" vertex="1">
          <mxGeometry x="2835" y="250" width="120" height="60" as="geometry" />
        </mxCell>
        <mxCell id="-8dKipwocMkaaqdaRbaH-246" style="edgeStyle=orthogonalEdgeStyle;rounded=0;orthogonalLoop=1;jettySize=auto;html=1;entryX=0.75;entryY=1;entryDx=0;entryDy=0;startFill=0;endArrow=none;endFill=0;strokeWidth=1;" parent="1" source="-8dKipwocMkaaqdaRbaH-247" target="-8dKipwocMkaaqdaRbaH-242" edge="1">
          <mxGeometry relative="1" as="geometry">
            <Array as="points">
              <mxPoint x="3148" y="325" />
              <mxPoint x="3148" y="325" />
            </Array>
          </mxGeometry>
        </mxCell>
        <mxCell id="-8dKipwocMkaaqdaRbaH-247" value="&lt;u&gt;bed_identifier&lt;/u&gt;" style="ellipse;whiteSpace=wrap;html=1;align=center;" parent="1" vertex="1">
          <mxGeometry x="3085" y="350" width="100" height="40" as="geometry" />
        </mxCell>
        <mxCell id="-8dKipwocMkaaqdaRbaH-259" style="edgeStyle=orthogonalEdgeStyle;rounded=0;orthogonalLoop=1;jettySize=auto;html=1;exitX=0.5;exitY=1;exitDx=0;exitDy=0;entryX=0.75;entryY=0;entryDx=0;entryDy=0;strokeColor=none;startArrow=none;startFill=0;" parent="1" source="-8dKipwocMkaaqdaRbaH-261" target="-8dKipwocMkaaqdaRbaH-33" edge="1">
          <mxGeometry relative="1" as="geometry" />
        </mxCell>
        <mxCell id="-8dKipwocMkaaqdaRbaH-260" style="edgeStyle=orthogonalEdgeStyle;rounded=0;orthogonalLoop=1;jettySize=auto;html=1;exitX=1;exitY=1;exitDx=0;exitDy=0;entryX=1;entryY=0.75;entryDx=0;entryDy=0;startArrow=none;startFill=0;endArrow=none;endFill=0;" parent="1" source="-8dKipwocMkaaqdaRbaH-261" target="-8dKipwocMkaaqdaRbaH-33" edge="1">
          <mxGeometry relative="1" as="geometry" />
        </mxCell>
        <mxCell id="-8dKipwocMkaaqdaRbaH-261" value="status" style="ellipse;whiteSpace=wrap;html=1;align=center;" parent="1" vertex="1">
          <mxGeometry x="1405" y="390" width="100" height="40" as="geometry" />
        </mxCell>
        <mxCell id="-8dKipwocMkaaqdaRbaH-264" style="edgeStyle=orthogonalEdgeStyle;rounded=0;orthogonalLoop=1;jettySize=auto;html=1;exitX=0.5;exitY=1;exitDx=0;exitDy=0;entryX=0.5;entryY=0;entryDx=0;entryDy=0;startFill=0;endArrow=none;endFill=0;strokeWidth=1;" parent="1" source="-8dKipwocMkaaqdaRbaH-266" edge="1">
          <mxGeometry relative="1" as="geometry">
            <mxPoint x="2525" y="1329.9999999999995" as="targetPoint" />
          </mxGeometry>
        </mxCell>
        <mxCell id="-8dKipwocMkaaqdaRbaH-265" style="edgeStyle=orthogonalEdgeStyle;rounded=0;orthogonalLoop=1;jettySize=auto;html=1;exitX=1;exitY=0.5;exitDx=0;exitDy=0;entryX=0;entryY=0.5;entryDx=0;entryDy=0;startFill=0;endArrow=none;endFill=0;strokeWidth=1;" parent="1" source="-8dKipwocMkaaqdaRbaH-266" target="-8dKipwocMkaaqdaRbaH-267" edge="1">
          <mxGeometry relative="1" as="geometry" />
        </mxCell>
        <mxCell id="-8dKipwocMkaaqdaRbaH-266" value="subscriber" style="ellipse;whiteSpace=wrap;html=1;align=center;" parent="1" vertex="1">
          <mxGeometry x="2475" y="1230" width="100" height="40" as="geometry" />
        </mxCell>
        <mxCell id="-8dKipwocMkaaqdaRbaH-267" value="relationship" style="ellipse;whiteSpace=wrap;html=1;align=center;" parent="1" vertex="1">
          <mxGeometry x="2615" y="1230" width="100" height="40" as="geometry" />
        </mxCell>
        <mxCell id="-8dKipwocMkaaqdaRbaH-268" value="lname" style="ellipse;whiteSpace=wrap;html=1;align=center;" parent="1" vertex="1">
          <mxGeometry x="2475" y="1400" width="100" height="40" as="geometry" />
        </mxCell>
        <mxCell id="-8dKipwocMkaaqdaRbaH-269" style="edgeStyle=orthogonalEdgeStyle;rounded=0;orthogonalLoop=1;jettySize=auto;html=1;exitX=0.5;exitY=1;exitDx=0;exitDy=0;entryX=0.5;entryY=0;entryDx=0;entryDy=0;startFill=0;endArrow=none;endFill=0;strokeWidth=1;" parent="1" source="-8dKipwocMkaaqdaRbaH-271" target="-8dKipwocMkaaqdaRbaH-268" edge="1">
          <mxGeometry relative="1" as="geometry" />
        </mxCell>
        <mxCell id="-8dKipwocMkaaqdaRbaH-270" style="edgeStyle=orthogonalEdgeStyle;rounded=0;orthogonalLoop=1;jettySize=auto;html=1;exitX=1;exitY=0.5;exitDx=0;exitDy=0;entryX=0;entryY=0.5;entryDx=0;entryDy=0;startFill=0;endArrow=none;endFill=0;strokeWidth=1;" parent="1" source="-8dKipwocMkaaqdaRbaH-271" target="-8dKipwocMkaaqdaRbaH-272" edge="1">
          <mxGeometry relative="1" as="geometry">
            <Array as="points">
              <mxPoint x="2585" y="1340" />
              <mxPoint x="2585" y="1390" />
            </Array>
          </mxGeometry>
        </mxCell>
        <mxCell id="-8dKipwocMkaaqdaRbaH-271" value="name" style="ellipse;whiteSpace=wrap;html=1;align=center;" parent="1" vertex="1">
          <mxGeometry x="2475" y="1320" width="100" height="40" as="geometry" />
        </mxCell>
        <mxCell id="-8dKipwocMkaaqdaRbaH-272" value="fname" style="ellipse;whiteSpace=wrap;html=1;align=center;" parent="1" vertex="1">
          <mxGeometry x="2605" y="1370" width="100" height="40" as="geometry" />
        </mxCell>
        <mxCell id="-8dKipwocMkaaqdaRbaH-273" style="edgeStyle=orthogonalEdgeStyle;rounded=0;orthogonalLoop=1;jettySize=auto;html=1;exitX=0;exitY=0;exitDx=0;exitDy=0;entryX=0.765;entryY=0.909;entryDx=0;entryDy=0;entryPerimeter=0;endArrow=none;endFill=0;" parent="1" target="-8dKipwocMkaaqdaRbaH-266" edge="1">
          <mxGeometry relative="1" as="geometry">
            <mxPoint x="2669.6446609406726" y="1305.8578643762692" as="sourcePoint" />
          </mxGeometry>
        </mxCell>
        <mxCell id="-8dKipwocMkaaqdaRbaH-275" style="edgeStyle=orthogonalEdgeStyle;rounded=0;orthogonalLoop=1;jettySize=auto;html=1;entryX=0;entryY=1;entryDx=0;entryDy=0;endArrow=none;endFill=0;" parent="1" source="-8dKipwocMkaaqdaRbaH-276" target="-8dKipwocMkaaqdaRbaH-266" edge="1">
          <mxGeometry relative="1" as="geometry" />
        </mxCell>
        <mxCell id="-8dKipwocMkaaqdaRbaH-276" value="address" style="ellipse;whiteSpace=wrap;html=1;align=center;" parent="1" vertex="1">
          <mxGeometry x="2335" y="1260" width="100" height="40" as="geometry" />
        </mxCell>
        <mxCell id="-8dKipwocMkaaqdaRbaH-277" value="contact_no" style="ellipse;whiteSpace=wrap;html=1;align=center;" parent="1" vertex="1">
          <mxGeometry x="2650" y="1290" width="100" height="40" as="geometry" />
        </mxCell>
        <mxCell id="-8dKipwocMkaaqdaRbaH-278" value="weight" style="ellipse;whiteSpace=wrap;html=1;align=center;" parent="1" vertex="1">
          <mxGeometry x="1610" y="710" width="100" height="40" as="geometry" />
        </mxCell>
        <mxCell id="-8dKipwocMkaaqdaRbaH-280" value="&lt;span&gt;diagnosis&lt;/span&gt;" style="shape=associativeEntity;whiteSpace=wrap;html=1;align=center;" parent="1" vertex="1">
          <mxGeometry x="1290" y="805" width="100" height="60" as="geometry" />
        </mxCell>
      </root>
    </mxGraphModel>
  </diagram>
</mxfile>
